<?xml version="1.0" encoding="UTF-8"?>
<!DOCTYPE svg PUBLIC "-//W3C//DTD SVG 1.1//EN" "http://www.w3.org/Graphics/SVG/1.1/DTD/svg11.dtd">
<!-- Creator: CorelDRAW X8 -->
<svg xmlns="http://www.w3.org/2000/svg" xml:space="preserve" width="48mm" height="10mm" version="1.1" style="shape-rendering:geometricPrecision; text-rendering:geometricPrecision; image-rendering:optimizeQuality; fill-rule:evenodd; clip-rule:evenodd"
viewBox="0 0 4800 1000"
 xmlns:xlink="http://www.w3.org/1999/xlink">
 <defs>
  <style type="text/css">
   <![CDATA[
    .fil0 {fill:#FEFEFE;fill-rule:nonzero}
   ]]>
  </style>
 </defs>
 <g id="Capa_x0020_1">
  <metadata id="CorelCorpID_0Corel-Layer"/>
  <path class="fil0" d="M546 292c0,126 -90,294 -270,505l102 0c16,0 42,-2 77,-5 14,-2 32,-4 55,-8 -5,18 -14,47 -26,89 -5,21 -13,52 -23,91l-389 0 -27 -61c60,-105 102,-184 124,-238 30,-71 45,-134 45,-189 0,-40 -12,-70 -36,-91 -20,-17 -44,-26 -71,-26 -27,0 -53,7 -78,19l28 -324c60,-22 125,-33 193,-33 90,0 162,25 215,75 54,49 81,115 81,196z"/>
  <path id="1" class="fil0" d="M1607 206c-29,81 -75,214 -136,400 -27,87 -62,206 -106,358l-177 0c-17,-69 -47,-187 -90,-354 -27,86 -63,204 -109,354l-175 0c-21,-75 -57,-198 -108,-369 -30,-94 -74,-224 -133,-389l337 0c7,32 19,84 37,156l52 198c10,-28 24,-75 42,-143 -15,-58 -35,-128 -59,-211l307 0c5,31 14,82 26,153 9,47 21,114 36,201l51 -202c9,-38 20,-89 33,-152l172 0z"/>
  <path id="2" class="fil0" d="M2236 964l-271 0 -21 -63c-7,3 -26,12 -55,29 -19,12 -40,29 -64,49l-27 -60c-6,-12 -14,-29 -25,-50l-26 95 -144 0c21,-81 54,-215 98,-402 27,-125 50,-244 68,-356l296 0c10,51 35,172 76,361 23,99 55,231 95,397zm-312 -161c-6,-18 -16,-46 -30,-86 -8,-22 -21,-52 -39,-90 -7,19 -19,51 -35,94 -9,25 -20,60 -32,103 10,0 32,-2 67,-6 21,-3 44,-8 69,-15z"/>
  <path id="3" class="fil0" d="M2861 206c-4,66 -11,182 -19,348 -5,122 -9,262 -12,421 -43,-34 -109,-85 -197,-152 -39,-27 -96,-67 -171,-121l-5 262 -159 0c-3,-66 -9,-193 -18,-378 -9,-150 -17,-277 -26,-380l247 0 185 174c0,-40 0,-72 -2,-94 -1,-20 -3,-47 -6,-80l183 0z"/>
  <path id="4" class="fil0" d="M3505 206l-14 310c-13,-2 -34,-4 -62,-7 -18,-1 -46,-2 -86,-3 -2,19 -5,66 -10,141 -3,72 -9,178 -17,317l-239 0c-2,-66 -7,-171 -14,-313 -3,-50 -7,-98 -10,-145l-79 3 -71 7 -12 -310 614 0z"/>
  <path id="5" class="fil0" d="M4054 206l-22 312c-12,-2 -38,-5 -79,-10 -27,-3 -58,-4 -91,-5l-7 94c36,1 95,0 177,-2 -3,12 -9,35 -17,68 -5,20 -9,43 -12,70 -10,-3 -34,-6 -72,-9 -18,-1 -44,-2 -79,-1l-5 110c25,0 70,-3 137,-6 12,-1 33,-5 62,-12 -3,10 -9,34 -19,73 -5,21 -10,46 -17,76l-442 0 -14 -387c-3,-88 -9,-212 -20,-371l520 0z"/>
  <path id="6" class="fil0" d="M4771 591c0,119 -37,212 -110,280 -77,71 -184,107 -322,107 -89,0 -158,-5 -206,-14l-14 -367c-4,-94 -12,-224 -23,-389 72,-11 146,-16 224,-16 139,0 247,33 326,97 83,69 125,170 125,302zm-202 61c0,-49 -16,-85 -47,-108 -26,-19 -59,-27 -100,-26l-7 310c42,-3 77,-16 103,-41 34,-31 51,-76 51,-135z"/>
 </g>
</svg>
