<?xml version="1.0" encoding="UTF-8"?>
<!DOCTYPE svg PUBLIC "-//W3C//DTD SVG 1.1//EN" "http://www.w3.org/Graphics/SVG/1.1/DTD/svg11.dtd">
<!-- Creator: CorelDRAW X8 -->
<svg xmlns="http://www.w3.org/2000/svg" xml:space="preserve" width="50.5mm" height="54mm" version="1.1" style="shape-rendering:geometricPrecision; text-rendering:geometricPrecision; image-rendering:optimizeQuality; fill-rule:evenodd; clip-rule:evenodd"
viewBox="0 0 5050 5400"
 xmlns:xlink="http://www.w3.org/1999/xlink">
 <defs>
  <style type="text/css">
   <![CDATA[
    .str0 {stroke:#00AFEF;stroke-width:562.54}
    .fil0 {fill:none}
    .fil1 {fill:#201E1E}
    .fil2 {fill:#FEFEFE;fill-rule:nonzero}
   ]]>
  </style>
 </defs>
 <g id="Capa_x0020_1">
  <metadata id="CorelCorpID_0Corel-Layer"/>
  <g id="_1995247024384">
   <g>
    <path class="fil0 str0" d="M2525 550c1187,0 2150,963 2150,2150 0,1187 -963,2150 -2150,2150 -1187,0 -2150,-963 -2150,-2150 0,-1187 963,-2150 2150,-2150z"/>
    <path id="1" class="fil1" d="M2525 550c1187,0 2150,963 2150,2150 0,1187 -963,2150 -2150,2150 -1187,0 -2150,-963 -2150,-2150 0,-1187 963,-2150 2150,-2150z"/>
   </g>
   <path class="fil2" d="M1217 2394l0 -239c-53,7 -95,20 -123,38 -29,19 -43,42 -43,69 0,25 14,49 41,70 27,22 68,42 125,62zm129 365l0 268c52,-12 90,-28 114,-49 24,-20 37,-46 37,-77 0,-28 -13,-53 -38,-77 -25,-24 -63,-46 -113,-65zm-598 136c91,44 173,77 245,98 73,21 143,32 210,34l0 -318 -147 -67c-111,-50 -193,-104 -244,-163 -52,-58 -78,-125 -78,-201 0,-94 43,-173 129,-238 86,-65 200,-102 340,-111l0 -168 153 0 1 170c42,3 89,9 141,18 52,10 118,24 198,43l0 288c-78,-36 -145,-64 -201,-83 -55,-19 -102,-30 -139,-33l0 282 59 23c148,59 253,120 317,182 64,63 95,136 95,218 0,108 -43,199 -129,274 -86,75 -200,120 -342,135l0 230 -153 0 0 -223 -20 0c-49,0 -104,-4 -164,-13 -61,-9 -140,-25 -238,-48l-33 -329z"/>
   <polygon class="fil2" points="2012,3762 2012,1783 1625,1783 1696,1342 2503,1342 2503,3762 "/>
   <path id="1" class="fil2" d="M3111 2552c0,240 25,427 77,563 51,135 122,203 211,203 91,0 162,-67 213,-202 52,-135 77,-322 77,-564 0,-242 -25,-431 -76,-566 -51,-135 -122,-203 -214,-203 -88,0 -159,69 -211,205 -51,136 -77,324 -77,564zm-507 0c0,-403 70,-719 212,-947 141,-227 335,-341 582,-341 248,0 443,114 585,342 142,228 213,544 213,946 0,403 -71,719 -213,947 -142,228 -337,342 -585,342 -247,0 -441,-114 -582,-341 -142,-228 -212,-544 -212,-948z"/>
  </g>
 </g>
</svg>
