<?xml version="1.0" encoding="UTF-8"?>
<!DOCTYPE svg PUBLIC "-//W3C//DTD SVG 1.1//EN" "http://www.w3.org/Graphics/SVG/1.1/DTD/svg11.dtd">
<!-- Creator: CorelDRAW X8 -->
<svg xmlns="http://www.w3.org/2000/svg" xml:space="preserve" width="50.5mm" height="54mm" version="1.1" style="shape-rendering:geometricPrecision; text-rendering:geometricPrecision; image-rendering:optimizeQuality; fill-rule:evenodd; clip-rule:evenodd"
viewBox="0 0 5050 5400"
 xmlns:xlink="http://www.w3.org/1999/xlink">
 <defs>
  <style type="text/css">
   <![CDATA[
    .str0 {stroke:#00AFEF;stroke-width:562.54}
    .fil0 {fill:none}
    .fil1 {fill:#201E1E}
    .fil2 {fill:#FEFEFE;fill-rule:nonzero}
   ]]>
  </style>
 </defs>
 <g id="Capa_x0020_1">
  <metadata id="CorelCorpID_0Corel-Layer"/>
  <g id="_1995245062736">
   <g>
    <path class="fil0 str0" d="M2525 550c1187,0 2150,963 2150,2150 0,1187 -963,2150 -2150,2150 -1187,0 -2150,-963 -2150,-2150 0,-1187 963,-2150 2150,-2150z"/>
    <path id="1" class="fil1" d="M2525 550c1187,0 2150,963 2150,2150 0,1187 -963,2150 -2150,2150 -1187,0 -2150,-963 -2150,-2150 0,-1187 963,-2150 2150,-2150z"/>
   </g>
   <path class="fil2" d="M994 2339l0 -242c-43,7 -76,20 -98,39 -22,19 -34,42 -34,70 0,25 11,49 32,71 22,21 55,42 100,62zm101 370l0 271c40,-12 70,-29 89,-49 20,-21 29,-48 29,-79 0,-28 -10,-53 -30,-78 -19,-24 -49,-46 -88,-65zm-471 137c72,45 136,78 193,99 57,21 113,33 165,35l0 -322 -116 -68c-87,-50 -151,-105 -192,-164 -40,-60 -61,-128 -61,-205 0,-94 34,-174 102,-240 67,-66 157,-103 267,-113l0 -170 120 0 1 172c33,3 70,9 111,19 41,10 93,24 156,44l0 291c-61,-37 -114,-64 -158,-84 -43,-19 -80,-30 -110,-34l0 286 47 24c116,59 199,121 249,184 51,63 76,137 76,220 0,109 -34,202 -102,278 -68,75 -158,121 -270,136l0 233 -120 0 0 -226 -16 0c-38,0 -81,-4 -129,-13 -47,-10 -110,-26 -187,-49l-26 -333z"/>
   <path class="fil2" d="M1604 3261c87,68 168,120 243,154 75,34 147,51 215,51 102,0 185,-35 250,-103 64,-68 96,-156 96,-263 0,-121 -39,-218 -119,-291 -80,-73 -188,-109 -323,-109 -62,0 -122,5 -178,16 -56,10 -110,27 -161,49l0 -1275 1184 0 -118 489 -690 0 0 320c5,0 13,0 24,-1 59,-8 101,-12 125,-12 210,0 381,79 516,237 133,157 200,359 200,604 0,252 -74,459 -221,621 -147,163 -337,244 -569,244 -127,0 -248,-24 -362,-73 -114,-48 -224,-122 -331,-221l219 -437z"/>
   <path id="1" class="fil2" d="M3419 2700c0,239 23,427 71,562 47,136 112,204 194,204 83,0 149,-68 196,-202 47,-135 71,-322 71,-564 0,-243 -24,-431 -70,-566 -47,-135 -113,-203 -197,-203 -81,0 -146,68 -194,204 -47,137 -71,325 -71,565zm-466 0c0,-404 65,-720 195,-947 130,-228 308,-342 535,-342 228,0 407,114 537,343 131,228 196,543 196,946 0,403 -65,718 -196,946 -130,229 -309,343 -537,343 -227,0 -405,-114 -535,-342 -130,-228 -195,-543 -195,-947z"/>
  </g>
 </g>
</svg>
