<?xml version="1.0" encoding="UTF-8"?>
<!DOCTYPE svg PUBLIC "-//W3C//DTD SVG 1.1//EN" "http://www.w3.org/Graphics/SVG/1.1/DTD/svg11.dtd">
<!-- Creator: CorelDRAW X8 -->
<svg xmlns="http://www.w3.org/2000/svg" xml:space="preserve" width="50.5mm" height="54mm" version="1.1" style="shape-rendering:geometricPrecision; text-rendering:geometricPrecision; image-rendering:optimizeQuality; fill-rule:evenodd; clip-rule:evenodd"
viewBox="0 0 5050 5400"
 xmlns:xlink="http://www.w3.org/1999/xlink">
 <defs>
  <style type="text/css">
   <![CDATA[
    .fil1 {fill:#201E1E}
    .fil2 {fill:#FEFEFE;fill-rule:nonzero}
    .fil0 {fill:#00AFEF;fill-rule:nonzero}
   ]]>
  </style>
 </defs>
 <g id="Capa_x0020_1">
  <metadata id="CorelCorpID_0Corel-Layer"/>
  <g id="_1995152672416">
   <g>
    <path class="fil0" d="M4956 2700l-562 0 0 0 -3 -96 -7 -95 -12 -94 -16 -92 -21 -90 -25 -89 -30 -87 -33 -84 -37 -83 -42 -81 -45 -78 -48 -76 -52 -73 -56 -71 -59 -67 -62 -65 -65 -62 -67 -59 -71 -56 -73 -52 -76 -48 -78 -45 -81 -42 -83 -37 -84 -33 -87 -30 -89 -25 -90 -21 -92 -16 -94 -12 -95 -7 -96 -3 0 -562 125 3 123 9 122 16 120 21 117 27 116 33 113 38 110 44 108 49 105 53 102 59 99 63 95 68 92 72 88 76 84 81 81 84 76 88 72 92 68 95 63 99 59 102 53 105 49 108 44 110 38 113 33 116 27 117 21 120 16 122 9 123 3 125 0 0zm-2431 2431l0 -562 0 0 96 -3 95 -7 94 -12 92 -16 90 -21 89 -25 87 -30 84 -33 83 -37 81 -42 78 -45 76 -48 73 -52 71 -56 67 -59 65 -62 62 -65 59 -67 56 -71 52 -73 48 -76 45 -78 42 -81 37 -83 33 -84 30 -87 25 -89 21 -90 16 -92 12 -94 7 -95 3 -96 562 0 -3 125 -9 123 -16 122 -21 120 -27 117 -33 116 -38 113 -44 110 -49 108 -53 105 -59 102 -63 99 -68 95 -72 92 -76 88 -81 84 -84 81 -88 76 -92 72 -95 68 -99 63 -102 59 -105 53 -108 49 -110 44 -113 38 -116 33 -117 27 -120 21 -122 16 -123 9 -125 3 0 0zm-2431 -2431l562 0 0 0 3 96 7 95 12 94 16 92 21 90 25 89 30 87 33 84 37 83 42 81 45 78 48 76 52 73 56 71 59 67 62 65 65 62 67 59 71 56 73 52 76 48 78 45 81 42 83 37 84 33 87 30 89 25 90 21 92 16 94 12 95 7 96 3 0 562 -125 -3 -123 -9 -122 -16 -120 -21 -117 -27 -116 -33 -113 -38 -110 -44 -108 -49 -105 -53 -102 -59 -99 -63 -95 -68 -92 -72 -88 -76 -84 -81 -81 -84 -76 -88 -72 -92 -68 -95 -63 -99 -59 -102 -53 -105 -49 -108 -44 -110 -38 -113 -33 -116 -27 -117 -21 -120 -16 -122 -9 -123 -3 -125 0 0zm2431 -2431l0 562 0 0 -96 3 -95 7 -94 12 -92 16 -90 21 -89 25 -87 30 -84 33 -83 37 -81 42 -78 45 -76 48 -73 52 -71 56 -67 59 -65 62 -62 65 -59 67 -56 71 -52 73 -48 76 -45 78 -42 81 -37 83 -33 84 -30 87 -25 89 -21 90 -16 92 -12 94 -7 95 -3 96 -562 0 3 -125 9 -123 16 -122 21 -120 27 -117 33 -116 38 -113 44 -110 49 -108 53 -105 59 -102 63 -99 68 -95 72 -92 76 -88 81 -84 84 -81 88 -76 92 -72 95 -68 99 -63 102 -59 105 -53 108 -49 110 -44 113 -38 116 -33 117 -27 120 -21 122 -16 123 -9 125 -3 0 0z"/>
    <path id="1" class="fil1" d="M2525 550c1187,0 2150,963 2150,2150 0,1187 -963,2150 -2150,2150 -1187,0 -2150,-963 -2150,-2150 0,-1187 963,-2150 2150,-2150z"/>
   </g>
   <path class="fil2" d="M964 2394l0 -239c-43,7 -76,20 -99,38 -23,19 -34,42 -34,69 0,25 11,49 32,70 22,22 56,42 101,62zm104 365l0 268c41,-12 72,-28 91,-49 20,-20 29,-46 29,-77 0,-28 -10,-53 -30,-77 -20,-24 -50,-46 -90,-65zm-480 136c73,44 138,77 197,98 58,21 114,32 168,34l0 -318 -118 -67c-90,-50 -155,-104 -196,-163 -42,-58 -62,-125 -62,-201 0,-94 34,-173 103,-238 69,-65 160,-102 273,-111l0 -168 123 0 0 170c34,3 72,9 113,18 42,10 95,24 160,43l0 288c-63,-36 -117,-64 -161,-83 -45,-19 -82,-30 -112,-33l0 283 47 22c119,59 203,120 254,183 52,62 77,135 77,217 0,108 -35,199 -104,274 -69,75 -161,120 -274,135l0 230 -123 0 0 -223 -16 0c-40,0 -84,-4 -132,-13 -49,-9 -112,-25 -191,-48l-26 -329z"/>
   <path class="fil2" d="M1362 3910l0 -195 765 -1048 6 -9c142,-192 212,-341 212,-447 0,-86 -24,-156 -75,-211 -50,-55 -115,-83 -195,-83 -71,0 -134,27 -186,81 -53,54 -88,128 -105,220l-404 -229c61,-183 155,-326 281,-427 126,-100 273,-151 443,-151 204,0 374,74 513,221 138,147 207,330 207,549 0,135 -32,274 -94,418 -62,144 -159,299 -289,463l-278 352 760 0 -72 496 -1489 0z"/>
   <path id="1" class="fil2" d="M3414 2700c0,239 25,427 74,562 49,136 117,204 202,204 86,0 155,-68 204,-202 49,-135 73,-322 73,-564 0,-243 -24,-431 -72,-566 -49,-135 -118,-203 -205,-203 -84,0 -152,68 -202,204 -49,137 -74,325 -74,565zm-484 0c0,-404 67,-719 202,-947 135,-228 321,-342 557,-342 237,0 423,114 559,343 136,228 204,543 204,946 0,403 -68,718 -204,946 -136,229 -322,343 -559,343 -236,0 -422,-114 -557,-342 -135,-227 -202,-543 -202,-947z"/>
  </g>
 </g>
</svg>
