<?xml version="1.0" encoding="UTF-8"?>
<!DOCTYPE svg PUBLIC "-//W3C//DTD SVG 1.1//EN" "http://www.w3.org/Graphics/SVG/1.1/DTD/svg11.dtd">
<!-- Creator: CorelDRAW X8 -->
<svg xmlns="http://www.w3.org/2000/svg" xml:space="preserve" width="85mm" height="70mm" version="1.1" style="shape-rendering:geometricPrecision; text-rendering:geometricPrecision; image-rendering:optimizeQuality; fill-rule:evenodd; clip-rule:evenodd"
viewBox="0 0 8500 7000"
 xmlns:xlink="http://www.w3.org/1999/xlink">
 <defs>
  <style type="text/css">
   <![CDATA[
    .str0 {stroke:#848688;stroke-width:529.17}
    .str1 {stroke:#00AFEF;stroke-width:529.17}
    .str5 {stroke:#FBE6D7;stroke-width:141.1;stroke-linejoin:round}
    .str4 {stroke:#F7D2B6;stroke-width:141.1;stroke-linejoin:round}
    .str3 {stroke:#F5BF99;stroke-width:141.1;stroke-linejoin:round}
    .str2 {stroke:#F9AD7A;stroke-width:141.1;stroke-linejoin:round}
    .fil0 {fill:none}
    .fil1 {fill:#848688}
    .fil6 {fill:#44446F}
    .fil7 {fill:#353448}
    .fil8 {fill:#29282D}
    .fil2 {fill:#201E1E}
    .fil5 {fill:#4522F2}
    .fil3 {fill:#FEFEFE;fill-rule:nonzero}
    .fil4 {fill:#ED3237;fill-rule:nonzero}
    .fil9 {fill:#201E1E;fill-rule:nonzero}
   ]]>
  </style>
 </defs>
 <g id="Capa_x0020_1">
  <metadata id="CorelCorpID_0Corel-Layer"/>
  <g id="_2178770730480">
   <g>
    <path class="fil0 str0" d="M4251 1617c1117,0 2022,906 2022,2023 0,1117 -905,2022 -2022,2022 -1117,0 -2023,-905 -2023,-2022 0,-1117 906,-2023 2023,-2023z"/>
    <path id="1" class="fil1" d="M4251 1617c1117,0 2022,906 2022,2023 0,1117 -905,2022 -2022,2022 -1117,0 -2023,-905 -2023,-2022 0,-1117 906,-2023 2023,-2023z"/>
   </g>
   <g>
    <path class="fil0 str1" d="M3926 1401c1117,0 2022,906 2022,2023 0,1117 -905,2022 -2022,2022 -1117,0 -2023,-905 -2023,-2022 0,-1117 906,-2023 2023,-2023z"/>
    <path id="1" class="fil2" d="M3926 1401c1117,0 2022,906 2022,2023 0,1117 -905,2022 -2022,2022 -1117,0 -2023,-905 -2023,-2022 0,-1117 906,-2023 2023,-2023z"/>
   </g>
   <g>
    <path class="fil3" d="M3593 4669l-64 281 -64 -251 101 -81 98 -81 95 -80 93 -79 89 -78 87 -78 84 -76 80 -76 78 -76 76 -74 72 -73 69 -73 67 -72 63 -71 61 -71 58 -69 55 -69 52 -68 49 -67 46 -66 44 -65 40 -64 38 -63 35 -63 32 -61 29 -61 27 -59 23 -59 21 -57 18 -57 16 -56 13 -54 294 57 -15 66 -19 66 -21 67 -25 67 -27 68 -30 68 -33 68 -36 69 -39 69 -41 70 -45 71 -47 71 -50 71 -53 72 -56 73 -58 73 -62 73 -64 74 -67 75 -69 76 -73 76 -75 76 -78 78 -81 77 -83 79 -87 79 -89 80 -92 80 -95 81 -97 82 -101 83 -103 83 -64 -251zm-64 281l-300 -63 236 -188 64 251zm500 105l-500 -105 64 -281 500 105 0 0 -64 281zm429 -230l-35 285 0 0 -17 -1 -16 -2 -16 -2 -16 -2 -15 -2 -15 -2 -15 -1 -15 -2 -14 -2 -14 -2 -14 -1 -13 -2 -14 -2 -13 -2 -12 -1 -13 -2 -12 -2 -12 -2 -11 -1 -12 -2 -11 -2 -10 -1 -11 -2 -10 -2 -10 -1 -10 -2 -9 -2 -9 -2 -9 -1 -9 -2 -9 -2 -8 -1 64 -281 7 1 6 2 7 1 8 1 7 2 9 1 8 2 9 1 9 2 9 1 10 2 10 1 10 2 11 1 11 2 11 2 12 1 12 2 12 2 12 1 13 2 13 2 14 1 14 2 14 2 14 1 15 2 15 2 15 2 16 2 15 1 17 2 0 0zm394 229l-266 -134 126 211 -11 -1 -11 0 -11 -1 -11 0 -11 -1 -10 -1 -10 0 -11 -1 -10 0 -10 -1 -9 0 -10 -1 -9 -1 -10 0 -9 -1 -9 0 -9 -1 -9 -1 -9 0 -8 -1 -9 -1 -8 0 -8 -1 -8 -1 -8 0 -8 -1 -7 -1 -8 0 -7 -1 -7 -1 -7 -1 -7 -1 35 -285 6 1 6 0 6 1 6 1 7 0 7 1 7 1 6 0 8 1 7 1 8 0 7 1 8 0 8 1 8 1 9 0 8 1 9 0 8 1 9 0 9 1 10 0 9 1 10 1 9 0 10 1 10 0 10 1 11 0 10 1 11 0 10 1 127 210zm-127 -210l236 10 -109 200 -127 -210zm-92 627l-272 -122 1 -3 10 -18 9 -18 9 -18 9 -17 9 -18 9 -16 8 -17 8 -16 9 -16 8 -15 7 -15 8 -15 8 -15 7 -14 7 -14 7 -13 7 -13 7 -13 7 -12 6 -13 6 -11 6 -12 6 -11 6 -11 6 -10 5 -10 5 -10 6 -10 5 -9 4 -9 5 -8 5 -9 266 134 -5 8 -4 8 -5 8 -5 9 -5 9 -5 10 -5 10 -5 10 -6 10 -6 11 -6 12 -6 11 -6 12 -7 12 -6 13 -7 13 -7 13 -7 14 -7 14 -8 14 -8 15 -7 15 -8 15 -8 15 -9 17 -8 16 -9 16 -8 17 -9 18 -10 18 -9 18 -9 18 1 -2zm-381 519l64 -281 -168 81 8 -18 9 -18 8 -17 8 -17 8 -17 8 -16 8 -17 8 -16 7 -15 8 -16 7 -15 7 -15 7 -15 7 -14 7 -14 7 -14 7 -14 6 -13 6 -13 7 -13 6 -13 6 -12 6 -12 5 -12 6 -12 5 -11 6 -11 5 -11 5 -10 5 -11 5 -10 5 -9 272 122 -5 9 -5 10 -5 10 -5 11 -5 10 -5 11 -6 12 -5 11 -6 12 -6 12 -6 12 -6 13 -6 12 -6 13 -7 14 -6 13 -7 14 -7 14 -7 15 -7 14 -7 15 -7 16 -8 15 -7 16 -8 16 -8 16 -8 16 -8 17 -8 17 -8 17 -9 18 -8 18 -169 80zm169 -80l-51 105 -118 -25 169 -80zm-2004 -599l1899 398 -64 281 -1899 -399 -116 -113 180 -167zm-64 280l-97 -20 -19 -93 116 113zm112 -504l68 337 -296 54 -67 -338 32 -118 263 65zm-295 53l-13 -66 45 -52 -32 118zm885 -1183l252 156 0 0 -17 24 -17 25 -18 26 -19 26 -19 27 -20 27 -21 28 -21 29 -22 29 -23 30 -23 31 -24 31 -25 32 -26 32 -26 34 -27 33 -28 35 -28 35 -29 35 -30 37 -30 37 -31 37 -32 39 -32 39 -34 39 -33 40 -35 41 -35 42 -36 42 -37 43 -37 43 -38 44 -232 -183 38 -44 37 -43 36 -42 36 -42 35 -41 34 -40 33 -40 33 -39 32 -38 31 -38 31 -37 30 -36 29 -36 29 -35 27 -35 27 -33 27 -33 25 -33 25 -31 24 -31 24 -30 23 -30 22 -29 21 -28 20 -28 20 -27 19 -26 19 -25 17 -25 17 -24 16 -23 16 -23 0 0zm861 -1801l295 57 0 0 -9 37 -12 39 -14 43 -17 47 -19 50 -21 54 -23 57 -25 60 -27 63 -29 65 -30 68 -31 69 -32 70 -34 72 -34 72 -34 73 -36 73 -35 73 -36 73 -36 71 -35 70 -35 69 -35 67 -34 64 -33 62 -32 59 -31 57 -30 52 -29 49 -27 45 -25 41 -24 36 -252 -156 20 -30 22 -36 25 -41 26 -46 29 -50 30 -54 31 -57 32 -61 33 -63 34 -65 35 -68 35 -69 35 -70 35 -71 35 -72 34 -71 35 -72 33 -71 33 -71 32 -69 30 -68 30 -65 27 -64 26 -61 24 -57 23 -55 19 -50 18 -46 14 -41 12 -36 9 -29 5 -22 0 0zm-56 -384l246 -165 0 0 12 16 10 16 11 17 9 16 9 17 9 17 8 18 8 17 7 18 6 18 6 19 6 18 5 19 4 19 4 18 3 20 3 19 3 19 1 20 2 19 1 20 0 20 0 20 -1 20 -1 21 -1 20 -3 21 -2 20 -3 21 -3 21 -4 21 -4 21 -295 -57 3 -16 3 -16 3 -15 2 -15 2 -15 1 -15 1 -14 1 -14 0 -14 1 -13 -1 -14 0 -13 -1 -12 -1 -13 -2 -12 -1 -12 -3 -11 -2 -12 -2 -11 -3 -10 -3 -11 -4 -11 -4 -10 -4 -10 -4 -10 -4 -10 -5 -9 -5 -9 -6 -10 -5 -9 -6 -9 -7 -9 0 0zm-229 -146l65 -281 0 0 15 4 16 3 15 4 15 5 15 5 15 4 15 6 14 5 15 6 14 7 14 6 14 7 14 7 13 8 14 8 13 8 13 8 13 9 12 9 12 10 13 9 11 10 12 10 11 11 11 11 11 11 11 11 10 12 10 12 10 12 10 12 9 12 -246 165 -5 -7 -6 -8 -6 -7 -6 -7 -6 -6 -6 -7 -6 -6 -6 -6 -6 -6 -7 -5 -6 -6 -7 -5 -6 -5 -7 -5 -7 -4 -7 -5 -7 -4 -7 -5 -7 -4 -7 -3 -8 -4 -8 -4 -7 -3 -8 -3 -8 -4 -9 -2 -8 -3 -9 -3 -8 -3 -9 -2 -9 -2 -10 -2 0 0zm-518 -130l301 10 -192 -143 15 -4 15 -4 15 -4 15 -3 14 -3 15 -3 15 -3 15 -2 15 -2 15 -2 15 -2 15 -2 15 -1 15 -1 14 -1 15 -1 15 0 15 0 15 0 15 0 15 0 14 1 15 1 15 1 14 1 15 2 15 2 14 2 15 2 15 3 14 2 15 3 -65 281 -10 -2 -9 -2 -10 -2 -10 -1 -10 -2 -10 -1 -10 -1 -10 -1 -10 -1 -10 0 -10 -1 -10 0 -10 0 -10 0 -10 0 -10 0 -10 1 -10 0 -10 1 -11 1 -10 1 -10 1 -11 2 -10 1 -11 2 -10 2 -11 2 -10 2 -11 3 -10 2 -11 3 -11 3 -192 -143zm192 143l-199 54 7 -197 192 143zm134 -812l-25 679 -301 -10 25 -679 127 -137 174 147zm-301 -10l5 -118 122 -19 -127 137zm1160 -102l-64 281 0 0 -30 -6 -30 -6 -29 -6 -30 -5 -29 -4 -29 -5 -30 -4 -29 -4 -29 -3 -29 -3 -30 -3 -29 -2 -29 -2 -28 -2 -29 -2 -29 -1 -29 -1 -29 0 -28 0 -29 0 -28 0 -29 1 -28 1 -29 2 -28 2 -28 2 -29 2 -28 3 -28 3 -28 3 -28 4 -28 4 -47 -284 32 -4 31 -4 32 -4 32 -4 32 -3 31 -3 32 -2 32 -2 32 -2 32 -1 32 -1 33 0 32 -1 32 1 32 0 32 1 33 1 32 2 33 2 32 2 32 3 33 3 33 4 32 3 33 5 32 4 33 5 33 5 33 6 32 6 33 6 33 7 0 0zm1064 659l-251 158 -1 0 -17 -26 -19 -24 -19 -25 -19 -23 -20 -23 -21 -23 -21 -21 -22 -22 -22 -20 -24 -21 -23 -19 -24 -19 -25 -19 -26 -18 -26 -18 -27 -17 -27 -16 -28 -16 -29 -15 -30 -15 -30 -15 -31 -13 -31 -14 -32 -12 -33 -12 -34 -12 -34 -11 -35 -11 -36 -10 -36 -9 -37 -9 -38 -8 64 -281 44 10 42 10 43 11 41 11 41 13 40 13 40 13 39 15 39 15 38 16 37 17 36 17 36 18 35 19 35 20 34 20 33 21 33 22 31 22 31 23 31 24 30 25 28 25 29 26 27 27 27 28 26 28 25 29 24 29 24 30 23 31 22 31 0 0zm206 1185l-294 -57 0 0 7 -36 6 -35 6 -35 4 -35 4 -34 3 -34 3 -33 1 -33 1 -33 0 -32 -1 -32 -2 -32 -2 -31 -4 -31 -4 -30 -4 -31 -6 -29 -6 -30 -7 -29 -8 -29 -9 -29 -9 -28 -10 -28 -11 -28 -12 -28 -12 -27 -13 -27 -14 -27 -15 -26 -16 -26 -16 -26 -17 -26 251 -158 21 32 20 33 20 32 18 33 18 34 17 34 15 34 15 35 14 34 12 36 12 35 11 36 10 36 8 37 8 37 7 37 6 37 5 38 4 38 3 38 2 39 1 39 0 39 -1 39 -1 39 -3 40 -4 40 -4 40 -6 41 -6 41 -8 41 -8 41 0 0z"/>
    <path id="1" class="fil4" d="M5421 2530c-135,639 -756,1399 -1860,2279l500 105c77,16 203,34 379,54 68,7 161,14 279,19 -47,84 -120,224 -222,423 -50,101 -121,249 -213,440l-1899 -399 -67 -337c408,-472 696,-832 863,-1079 222,-328 823,-1569 882,-1850 43,-200 16,-365 -80,-495 -79,-109 -186,-176 -320,-204 -129,-28 -262,-23 -400,15l25 -679c318,-47 644,-37 978,33 437,92 761,292 970,598 210,307 272,666 185,1077z"/>
   </g>
   <g>
    <g>
     <path class="fil0 str2" d="M5450 2752c76,11 151,30 225,48 137,33 273,88 377,185 51,48 93,102 119,167 27,69 38,142 38,215 0,68 -10,135 -34,198 -24,60 -60,113 -105,158 -103,103 -239,156 -379,183 -72,14 -157,34 -230,36l-56 1 -3 16 -49 14c-154,45 -308,92 -463,139l-100 30 -3 -105c-2,-120 -6,-239 -8,-359 -2,-121 -5,-241 -7,-362 0,-14 0,-28 -1,-42l-12 -4c-17,-7 -34,-12 -52,-17 -2,67 -4,133 -6,199 -3,92 -5,184 -7,276 -3,128 -7,256 -11,384l-2 61 -59 14c-84,21 -168,41 -253,58l-95 20 -1 -97c-2,-95 -5,-191 -7,-287 -2,-138 -5,-277 -8,-416 -3,-82 -5,-164 -8,-246 -21,3 -43,7 -64,11 0,3 0,7 0,10 -3,154 -5,307 -7,461 -2,175 -4,351 -6,527l-2 287 -147 -248c-69,-117 -136,-236 -206,-353 -11,-18 -22,-37 -34,-55 0,11 0,22 0,32 0,102 -2,204 -2,306l-1 89 -88 -10c-44,-5 -88,-11 -131,-18l0 3 -64 -14 -42 -6 0 -2 -2 -1c-97,-20 -193,-44 -289,-69l-50 -13 -6 -38c-2,3 -4,6 -6,8l-102 133 -35 -147 -31 -9c-51,-16 -101,-31 -152,-47l-67 -20 12 -69c15,-89 28,-178 42,-266 20,-140 41,-280 60,-420 15,-111 27,-223 39,-334 9,-91 18,-183 27,-274l-7 34c-20,96 -39,191 -59,287 -27,133 -55,265 -84,397 -16,79 -32,158 -49,237 -20,98 -41,196 -62,294l-18 83 -82 -23c-61,-17 -122,-34 -184,-49l-49 -13 -10 -50c-8,-46 -17,-91 -26,-136 -8,32 -17,64 -26,95l-20 71 -71 -13c-60,-11 -120,-21 -181,-29l-53 -7 -13 -52c-15,-56 -30,-111 -45,-167 -22,-80 -44,-159 -68,-238 -17,-59 -38,-118 -57,-176 -26,-78 -53,-155 -81,-232l-35 -101 107 -5c115,-5 230,-19 343,-38l40 -7 29 -7c107,-28 213,-59 317,-93l93 -30 5 45c0,-1 0,-2 1,-2l6 -49 46 -17c60,-21 120,-44 180,-66l122 -46 0 0 48 -18c104,-37 209,-73 314,-107l95 -30 9 99c8,88 18,177 27,265 10,99 21,198 32,296 -3,-74 -5,-148 -7,-222 -4,-128 -8,-256 -13,-383l-3 -67 66 -15c88,-19 176,-35 266,-47l56 -7 25 51c12,25 24,49 36,73 0,-15 -1,-30 -2,-45l-3 -88 87 4c46,3 92,5 138,9l0 -8 94 18 39 5 0 3c182,36 362,85 539,143l0 -4 93 35 42 14 0 1c173,64 346,129 520,190l47 17z"/>
     <path id="1" class="fil5" d="M5450 2752c76,11 151,30 225,48 137,33 273,88 377,185 51,48 93,102 119,167 27,69 38,142 38,215 0,68 -10,135 -34,198 -24,60 -60,113 -105,158 -103,103 -239,156 -379,183 -72,14 -157,34 -230,36l-56 1 -3 16 -49 14c-154,45 -308,92 -463,139l-100 30 -3 -105c-2,-120 -6,-239 -8,-359 -2,-121 -5,-241 -7,-362 0,-14 0,-28 -1,-42l-12 -4c-17,-7 -34,-12 -52,-17 -2,67 -4,133 -6,199 -3,92 -5,184 -7,276 -3,128 -7,256 -11,384l-2 61 -59 14c-84,21 -168,41 -253,58l-95 20 -1 -97c-2,-95 -5,-191 -7,-287 -2,-138 -5,-277 -8,-416 -3,-82 -5,-164 -8,-246 -21,3 -43,7 -64,11 0,3 0,7 0,10 -3,154 -5,307 -7,461 -2,175 -4,351 -6,527l-2 287 -147 -248c-69,-117 -136,-236 -206,-353 -11,-18 -22,-37 -34,-55 0,11 0,22 0,32 0,102 -2,204 -2,306l-1 89 -88 -10c-44,-5 -88,-11 -131,-18l0 3 -64 -14 -42 -6 0 -2 -2 -1c-97,-20 -193,-44 -289,-69l-50 -13 -6 -38c-2,3 -4,6 -6,8l-102 133 -35 -147 -31 -9c-51,-16 -101,-31 -152,-47l-67 -20 12 -69c15,-89 28,-178 42,-266 20,-140 41,-280 60,-420 15,-111 27,-223 39,-334 9,-91 18,-183 27,-274l-7 34c-20,96 -39,191 -59,287 -27,133 -55,265 -84,397 -16,79 -32,158 -49,237 -20,98 -41,196 -62,294l-18 83 -82 -23c-61,-17 -122,-34 -184,-49l-49 -13 -10 -50c-8,-46 -17,-91 -26,-136 -8,32 -17,64 -26,95l-20 71 -71 -13c-60,-11 -120,-21 -181,-29l-53 -7 -13 -52c-15,-56 -30,-111 -45,-167 -22,-80 -44,-159 -68,-238 -17,-59 -38,-118 -57,-176 -26,-78 -53,-155 -81,-232l-35 -101 107 -5c115,-5 230,-19 343,-38l40 -7 29 -7c107,-28 213,-59 317,-93l93 -30 5 45c0,-1 0,-2 1,-2l6 -49 46 -17c60,-21 120,-44 180,-66l122 -46 0 0 48 -18c104,-37 209,-73 314,-107l95 -30 9 99c8,88 18,177 27,265 10,99 21,198 32,296 -3,-74 -5,-148 -7,-222 -4,-128 -8,-256 -13,-383l-3 -67 66 -15c88,-19 176,-35 266,-47l56 -7 25 51c12,25 24,49 36,73 0,-15 -1,-30 -2,-45l-3 -88 87 4c46,3 92,5 138,9l0 -8 94 18 39 5 0 3c182,36 362,85 539,143l0 -4 93 35 42 14 0 1c173,64 346,129 520,190l47 17z"/>
    </g>
    <g>
     <path class="fil0 str3" d="M5439 2770c78,11 155,31 231,49 134,33 267,86 369,181 49,45 88,97 113,160 27,66 37,136 37,207 0,65 -9,130 -33,191 -22,57 -57,107 -100,151 -100,100 -232,151 -369,178 -71,13 -155,33 -226,35l-60 1 -2 -59c0,-6 0,-11 0,-16 -3,19 -6,38 -9,57l-6 38 -36 11c-155,45 -309,92 -463,139l-76 23 -2 -79c-2,-120 -6,-240 -8,-360 -2,-120 -5,-241 -7,-361 0,-19 0,-37 -1,-56l-25 -9c-20,-7 -39,-13 -60,-19 -5,-1 -11,-2 -18,-3 -3,74 -5,148 -7,222 -3,93 -5,185 -7,277 -3,128 -7,255 -11,383l-1 46 -44 11c-84,21 -169,40 -253,58l-71 14 -1 -72c-2,-96 -5,-191 -7,-287 -2,-139 -5,-278 -8,-417 -3,-88 -6,-177 -9,-266 -6,0 -12,0 -19,0 -23,4 -46,8 -69,13l-14 2c-1,9 -1,18 -1,27 -3,153 -5,307 -7,461 -2,175 -4,351 -6,526l-2 216 -109 -186c-70,-117 -137,-236 -207,-353 -23,-38 -46,-76 -70,-114 -1,34 -1,68 -1,101 0,102 -2,204 -2,306l0 67 -67 -8c-52,-6 -104,-14 -156,-22l0 2 -38 -8 -25 -4 0 -2 -18 -3c-96,-21 -192,-44 -287,-69l-38 -10 -6 -38c-2,-11 -4,-21 -5,-31 -13,14 -24,29 -35,43l-76 99 -28 -117 -42 -13c-51,-15 -101,-30 -152,-46l-50 -15 9 -52c15,-89 28,-178 41,-266 21,-141 42,-280 61,-421 15,-111 27,-222 39,-334 11,-109 22,-218 32,-327l3 -38 36 -13c104,-37 208,-73 313,-107l72 -23 6 75c8,88 18,177 27,265 17,164 35,327 53,491 10,91 20,183 30,274 -1,-76 -3,-152 -5,-228 -4,-155 -8,-310 -13,-465 -4,-128 -8,-256 -13,-384l-2 -50 49 -11c87,-19 175,-36 264,-47l42 -5 19 38c26,52 52,105 77,157 -1,-46 -3,-93 -5,-139l-2 -66 65 3c53,3 106,5 159,11l0 -6 71 14 21 2 0 2c197,39 391,92 581,155l0 -3 65 25 28 9 0 1c178,66 356,132 535,195l42 15 0 1zm-49 737c-3,20 -5,39 -7,59l-3 35 12 -6c-1,-29 -2,-59 -2,-88zm-158 -226c0,7 0,14 -1,21 28,0 55,0 82,-1 -18,-5 -38,-10 -56,-15 -8,-2 -17,-4 -25,-5zm100 343l-23 -5c-17,-4 -45,-5 -63,-5 -7,0 -15,0 -22,0 -1,15 -1,31 -2,46 22,-6 44,-12 66,-17 13,-4 30,-12 44,-19zm-3062 22c-16,60 -33,119 -49,178l-15 53 -54 -10c-60,-11 -120,-20 -181,-29l-40 -5 -10 -39c-14,-56 -30,-112 -45,-167 -21,-80 -44,-160 -67,-239 -18,-59 -39,-118 -58,-177 -26,-77 -54,-154 -81,-231l-26 -76 80 -4c116,-6 231,-19 346,-38l41 -7 29 -8c107,-28 213,-59 319,-93l69 -23 9 73c4,34 8,68 13,103 7,-53 14,-105 20,-157l5 -36 34 -13c61,-22 121,-44 180,-66l102 -38 -22 106c-20,96 -39,191 -58,287 -27,133 -56,265 -84,397 -17,79 -33,158 -49,236 -21,99 -42,197 -63,295l-13 62 -61 -17c-62,-17 -123,-34 -185,-50l-37 -9 -7 -38c-12,-64 -24,-128 -37,-192 -2,-9 -4,-18 -5,-28zm805 70c0,-4 -1,-8 -2,-13 -1,5 -1,9 -2,14 1,-1 3,-1 4,-1zm2746 -362c-1,36 -1,71 -2,106 0,28 -1,56 -1,85 1,-2 2,-3 3,-4 28,-29 36,-69 36,-109 0,-26 -5,-54 -27,-71 -3,-3 -6,-5 -9,-7z"/>
     <path id="1" class="fil6" d="M5439 2770c78,11 155,31 231,49 134,33 267,86 369,181 49,45 88,97 113,160 27,66 37,136 37,207 0,65 -9,130 -33,191 -22,57 -57,107 -100,151 -100,100 -232,151 -369,178 -71,13 -155,33 -226,35l-60 1 -2 -59c0,-6 0,-11 0,-16 -3,19 -6,38 -9,57l-6 38 -36 11c-155,45 -309,92 -463,139l-76 23 -2 -79c-2,-120 -6,-240 -8,-360 -2,-120 -5,-241 -7,-361 0,-19 0,-37 -1,-56l-25 -9c-20,-7 -39,-13 -60,-19 -5,-1 -11,-2 -18,-3 -3,74 -5,148 -7,222 -3,93 -5,185 -7,277 -3,128 -7,255 -11,383l-1 46 -44 11c-84,21 -169,40 -253,58l-71 14 -1 -72c-2,-96 -5,-191 -7,-287 -2,-139 -5,-278 -8,-417 -3,-88 -6,-177 -9,-266 -6,0 -12,0 -19,0 -23,4 -46,8 -69,13l-14 2c-1,9 -1,18 -1,27 -3,153 -5,307 -7,461 -2,175 -4,351 -6,526l-2 216 -109 -186c-70,-117 -137,-236 -207,-353 -23,-38 -46,-76 -70,-114 -1,34 -1,68 -1,101 0,102 -2,204 -2,306l0 67 -67 -8c-52,-6 -104,-14 -156,-22l0 2 -38 -8 -25 -4 0 -2 -18 -3c-96,-21 -192,-44 -287,-69l-38 -10 -6 -38c-2,-11 -4,-21 -5,-31 -13,14 -24,29 -35,43l-76 99 -28 -117 -42 -13c-51,-15 -101,-30 -152,-46l-50 -15 9 -52c15,-89 28,-178 41,-266 21,-141 42,-280 61,-421 15,-111 27,-222 39,-334 11,-109 22,-218 32,-327l3 -38 36 -13c104,-37 208,-73 313,-107l72 -23 6 75c8,88 18,177 27,265 17,164 35,327 53,491 10,91 20,183 30,274 -1,-76 -3,-152 -5,-228 -4,-155 -8,-310 -13,-465 -4,-128 -8,-256 -13,-384l-2 -50 49 -11c87,-19 175,-36 264,-47l42 -5 19 38c26,52 52,105 77,157 -1,-46 -3,-93 -5,-139l-2 -66 65 3c53,3 106,5 159,11l0 -6 71 14 21 2 0 2c197,39 391,92 581,155l0 -3 65 25 28 9 0 1c178,66 356,132 535,195l42 15 0 1zm-49 737c-3,20 -5,39 -7,59l-3 35 12 -6c-1,-29 -2,-59 -2,-88zm-158 -226c0,7 0,14 -1,21 28,0 55,0 82,-1 -18,-5 -38,-10 -56,-15 -8,-2 -17,-4 -25,-5zm100 343l-23 -5c-17,-4 -45,-5 -63,-5 -7,0 -15,0 -22,0 -1,15 -1,31 -2,46 22,-6 44,-12 66,-17 13,-4 30,-12 44,-19zm-3062 22c-16,60 -33,119 -49,178l-15 53 -54 -10c-60,-11 -120,-20 -181,-29l-40 -5 -10 -39c-14,-56 -30,-112 -45,-167 -21,-80 -44,-160 -67,-239 -18,-59 -39,-118 -58,-177 -26,-77 -54,-154 -81,-231l-26 -76 80 -4c116,-6 231,-19 346,-38l41 -7 29 -8c107,-28 213,-59 319,-93l69 -23 9 73c4,34 8,68 13,103 7,-53 14,-105 20,-157l5 -36 34 -13c61,-22 121,-44 180,-66l102 -38 -22 106c-20,96 -39,191 -58,287 -27,133 -56,265 -84,397 -17,79 -33,158 -49,236 -21,99 -42,197 -63,295l-13 62 -61 -17c-62,-17 -123,-34 -185,-50l-37 -9 -7 -38c-12,-64 -24,-128 -37,-192 -2,-9 -4,-18 -5,-28zm805 70c0,-4 -1,-8 -2,-13 -1,5 -1,9 -2,14 1,-1 3,-1 4,-1zm2746 -362c-1,36 -1,71 -2,106 0,28 -1,56 -1,85 1,-2 2,-3 3,-4 28,-29 36,-69 36,-109 0,-26 -5,-54 -27,-71 -3,-3 -6,-5 -9,-7z"/>
    </g>
    <g>
     <path class="fil0 str4" d="M5418 2788l9 1c80,10 160,31 239,50 130,31 260,83 359,175 47,44 85,94 109,153 25,64 35,132 35,200 0,63 -9,125 -31,183 -22,56 -55,103 -96,145 -97,97 -226,146 -359,172 -69,13 -153,33 -223,35l-39 1 -2 -40c-2,-70 -4,-140 -6,-211l-6 29c-7,36 -13,72 -19,108 -6,38 -12,76 -18,113l-3 26 -25 7c-155,45 -309,92 -463,139l-51 15 -1 -53c-2,-120 -6,-239 -8,-359 -2,-121 -5,-241 -7,-362 0,-23 -1,-46 -1,-69l-38 -14c-20,-7 -41,-14 -62,-19 -13,-3 -27,-6 -42,-8 -3,82 -5,164 -8,246 -3,92 -5,184 -7,276 -3,128 -7,256 -11,384l-1 30 -29 8c-84,20 -168,39 -252,57l-48 10 0 -48c-2,-96 -5,-192 -7,-287 -2,-139 -5,-278 -8,-417 -3,-96 -6,-191 -10,-287 -13,1 -26,1 -39,1 -24,4 -48,8 -72,13l-30 6c0,14 -1,28 -1,42 -3,154 -5,308 -7,461 -2,176 -4,352 -6,527l-1 144 -73 -124c-70,-118 -137,-236 -207,-353 -34,-58 -70,-115 -107,-172 0,56 -1,113 -1,169 0,102 -2,204 -2,306l0 44 -45 -5c-56,-6 -112,-15 -168,-24l-13 -2 0 0 -11 -2 -9 -2 0 0 -34 -7c-96,-20 -191,-44 -286,-69l-25 -6 -5 -26c-3,-23 -7,-46 -11,-68 -1,1 -2,2 -3,2 -22,20 -43,47 -61,70l-51 66 -19 -81c-3,-11 -5,-21 -7,-31l-4 22 -44 -14c-50,-15 -101,-30 -151,-46l-33 -10 5 -35c15,-89 29,-177 42,-267 21,-140 42,-280 61,-420 15,-111 27,-223 38,-335 12,-109 23,-218 32,-327l3 -25 24 -9c103,-38 207,-73 312,-107l48 -15 4 50c8,88 18,177 27,265 17,164 35,328 53,491 14,126 28,253 42,379 13,112 26,224 38,336 -1,-48 -2,-96 -3,-144 -4,-176 -8,-351 -12,-527 -4,-155 -8,-311 -13,-466 -4,-128 -8,-256 -13,-384l-2 -33 33 -8c87,-18 174,-35 263,-46l28 -3 12 25c40,80 79,160 117,240 0,-14 0,-28 0,-42 -2,-64 -4,-127 -7,-190l-1 -44 43 2c60,3 121,6 180,13l0 -4 48 9 3 1 0 0c212,41 419,99 623,167l0 -1 38 13 14 5 0 1 4 1c181,67 362,135 544,199l28 10 0 5zm-20 389c-1,25 -3,50 -4,76l-2 52 -50 -16c-26,-9 -54,-15 -80,-22 -16,-4 -32,-7 -49,-10 -1,21 -2,43 -3,64 48,2 97,0 143,-1l50 -1 -10 49c-6,32 -12,65 -17,97 -6,33 -10,66 -13,99l-4 46 -45 -10c-19,-5 -48,-6 -67,-6 -14,-1 -28,0 -43,2 -1,30 -2,60 -2,90 30,-8 61,-16 91,-24 18,-5 41,-17 58,-25l61 -29c-2,-81 -4,-161 -6,-241 -2,-63 -5,-127 -8,-190zm-3126 382c-2,8 -4,16 -6,25 -21,78 -43,156 -65,235l-9 35 -36 -7c-61,-10 -121,-20 -182,-29l-27 -3 -7 -26c-14,-56 -29,-112 -44,-167 -22,-80 -45,-160 -68,-240 -18,-59 -39,-118 -58,-177 -26,-78 -54,-155 -81,-232l-18 -51 54 -2c117,-6 233,-19 348,-39l38 -6 0 0 34 -9c108,-27 214,-59 320,-93l46 -15 6 48c8,70 18,141 27,211 1,9 3,18 4,28 3,-17 6,-34 9,-51 13,-80 23,-161 33,-241l3 -25 23 -8c60,-22 120,-44 180,-67l68 -25 -14 71c-20,96 -40,191 -59,287 -27,133 -56,264 -84,397 -16,78 -33,157 -49,236 -20,98 -41,196 -62,294l-9 42 -41 -11c-61,-18 -123,-34 -185,-50l-25 -6 -4 -26c-12,-64 -25,-128 -37,-192 -7,-37 -15,-74 -23,-111zm-140 -586c8,38 17,76 25,114 6,24 11,48 17,71 1,-3 2,-6 2,-9 -8,-35 -17,-69 -25,-104 -6,-24 -13,-48 -19,-72zm966 758c-8,-45 -16,-91 -25,-137 0,1 0,1 0,1 -10,47 -18,95 -26,143 8,0 15,-1 22,-1 9,-1 19,-3 29,-6zm2704 -406c-1,45 -2,90 -3,135 0,41 -1,82 -2,124 14,-7 27,-17 38,-29 32,-33 42,-78 42,-123 0,-33 -7,-65 -34,-87 -13,-10 -26,-16 -41,-20z"/>
     <path id="1" class="fil7" d="M5418 2788l9 1c80,10 160,31 239,50 130,31 260,83 359,175 47,44 85,94 109,153 25,64 35,132 35,200 0,63 -9,125 -31,183 -22,56 -55,103 -96,145 -97,97 -226,146 -359,172 -69,13 -153,33 -223,35l-39 1 -2 -40c-2,-70 -4,-140 -6,-211l-6 29c-7,36 -13,72 -19,108 -6,38 -12,76 -18,113l-3 26 -25 7c-155,45 -309,92 -463,139l-51 15 -1 -53c-2,-120 -6,-239 -8,-359 -2,-121 -5,-241 -7,-362 0,-23 -1,-46 -1,-69l-38 -14c-20,-7 -41,-14 -62,-19 -13,-3 -27,-6 -42,-8 -3,82 -5,164 -8,246 -3,92 -5,184 -7,276 -3,128 -7,256 -11,384l-1 30 -29 8c-84,20 -168,39 -252,57l-48 10 0 -48c-2,-96 -5,-192 -7,-287 -2,-139 -5,-278 -8,-417 -3,-96 -6,-191 -10,-287 -13,1 -26,1 -39,1 -24,4 -48,8 -72,13l-30 6c0,14 -1,28 -1,42 -3,154 -5,308 -7,461 -2,176 -4,352 -6,527l-1 144 -73 -124c-70,-118 -137,-236 -207,-353 -34,-58 -70,-115 -107,-172 0,56 -1,113 -1,169 0,102 -2,204 -2,306l0 44 -45 -5c-56,-6 -112,-15 -168,-24l-13 -2 0 0 -11 -2 -9 -2 0 0 -34 -7c-96,-20 -191,-44 -286,-69l-25 -6 -5 -26c-3,-23 -7,-46 -11,-68 -1,1 -2,2 -3,2 -22,20 -43,47 -61,70l-51 66 -19 -81c-3,-11 -5,-21 -7,-31l-4 22 -44 -14c-50,-15 -101,-30 -151,-46l-33 -10 5 -35c15,-89 29,-177 42,-267 21,-140 42,-280 61,-420 15,-111 27,-223 38,-335 12,-109 23,-218 32,-327l3 -25 24 -9c103,-38 207,-73 312,-107l48 -15 4 50c8,88 18,177 27,265 17,164 35,328 53,491 14,126 28,253 42,379 13,112 26,224 38,336 -1,-48 -2,-96 -3,-144 -4,-176 -8,-351 -12,-527 -4,-155 -8,-311 -13,-466 -4,-128 -8,-256 -13,-384l-2 -33 33 -8c87,-18 174,-35 263,-46l28 -3 12 25c40,80 79,160 117,240 0,-14 0,-28 0,-42 -2,-64 -4,-127 -7,-190l-1 -44 43 2c60,3 121,6 180,13l0 -4 48 9 3 1 0 0c212,41 419,99 623,167l0 -1 38 13 14 5 0 1 4 1c181,67 362,135 544,199l28 10 0 5zm-20 389c-1,25 -3,50 -4,76l-2 52 -50 -16c-26,-9 -54,-15 -80,-22 -16,-4 -32,-7 -49,-10 -1,21 -2,43 -3,64 48,2 97,0 143,-1l50 -1 -10 49c-6,32 -12,65 -17,97 -6,33 -10,66 -13,99l-4 46 -45 -10c-19,-5 -48,-6 -67,-6 -14,-1 -28,0 -43,2 -1,30 -2,60 -2,90 30,-8 61,-16 91,-24 18,-5 41,-17 58,-25l61 -29c-2,-81 -4,-161 -6,-241 -2,-63 -5,-127 -8,-190zm-3126 382c-2,8 -4,16 -6,25 -21,78 -43,156 -65,235l-9 35 -36 -7c-61,-10 -121,-20 -182,-29l-27 -3 -7 -26c-14,-56 -29,-112 -44,-167 -22,-80 -45,-160 -68,-240 -18,-59 -39,-118 -58,-177 -26,-78 -54,-155 -81,-232l-18 -51 54 -2c117,-6 233,-19 348,-39l38 -6 0 0 34 -9c108,-27 214,-59 320,-93l46 -15 6 48c8,70 18,141 27,211 1,9 3,18 4,28 3,-17 6,-34 9,-51 13,-80 23,-161 33,-241l3 -25 23 -8c60,-22 120,-44 180,-67l68 -25 -14 71c-20,96 -40,191 -59,287 -27,133 -56,264 -84,397 -16,78 -33,157 -49,236 -20,98 -41,196 -62,294l-9 42 -41 -11c-61,-18 -123,-34 -185,-50l-25 -6 -4 -26c-12,-64 -25,-128 -37,-192 -7,-37 -15,-74 -23,-111zm-140 -586c8,38 17,76 25,114 6,24 11,48 17,71 1,-3 2,-6 2,-9 -8,-35 -17,-69 -25,-104 -6,-24 -13,-48 -19,-72zm966 758c-8,-45 -16,-91 -25,-137 0,1 0,1 0,1 -10,47 -18,95 -26,143 8,0 15,-1 22,-1 9,-1 19,-3 29,-6zm2704 -406c-1,45 -2,90 -3,135 0,41 -1,82 -2,124 14,-7 27,-17 38,-29 32,-33 42,-78 42,-123 0,-33 -7,-65 -34,-87 -13,-10 -26,-16 -41,-20z"/>
    </g>
    <g>
     <path class="fil0 str5" d="M4811 2583l0 0 10 3 1 1 0 0 17 6c181,67 362,134 544,199l14 5 0 15c-4,73 -8,145 -12,218 -3,74 -7,148 -11,222l-1 26 -25 -8c-27,-9 -55,-16 -82,-23 -23,-6 -47,-10 -71,-13 -2,35 -4,71 -6,107 54,2 111,1 165,-1l25 0 -5 24c-7,33 -13,65 -18,98 -6,33 -10,67 -13,101l-2 23 -22 -6c-20,-5 -51,-5 -72,-6 -19,-1 -42,1 -62,4 -2,44 -3,89 -4,133 39,-9 78,-19 117,-30 19,-5 44,-17 61,-26l37 -17 -8 39c-7,36 -13,73 -19,109 -7,37 -13,75 -18,113l-2 13 -13 4c-154,45 -309,92 -463,138l-25 8 -1 -26c-2,-120 -6,-240 -8,-359 -2,-121 -5,-241 -7,-362 -1,-100 -5,-200 -7,-299 -2,-86 -5,-172 -8,-257 -1,46 -2,92 -3,138 -3,100 -5,199 -7,298l-1 28 -26 -10c-21,-7 -42,-14 -64,-19 -20,-5 -43,-8 -65,-11 -5,89 -7,178 -10,267 -3,92 -5,184 -7,277 -3,128 -7,255 -11,383l0 15 -15 4c-83,21 -167,40 -251,57l-24 5 0 -24c-2,-95 -5,-191 -7,-287 -2,-139 -5,-278 -8,-417 -3,-102 -7,-204 -10,-306 -21,0 -41,1 -61,1 -25,4 -49,9 -73,13l-24 5 0 -24c-2,-121 -5,-241 -7,-362 -1,-56 -2,-112 -3,-168 -1,41 -2,81 -3,122 -3,165 -8,330 -11,495 -3,154 -5,307 -7,461 -2,176 -4,351 -6,527l0 72 -37 -62c-69,-118 -137,-236 -207,-354 -46,-77 -95,-153 -143,-229 -1,79 -2,158 -2,237 0,102 -2,204 -2,306l0 22 -22 -3c-57,-6 -112,-15 -168,-24l-17 -3 0 -16c-2,-110 -5,-219 -7,-328 -4,-176 -8,-352 -12,-528 -4,-155 -8,-310 -13,-466 -4,-128 -8,-256 -13,-384l-1 -16 16 -4c87,-19 174,-35 261,-46l14 -2 6 13c53,107 105,214 156,321 0,-44 -1,-88 -2,-133 -1,-63 -3,-127 -6,-190l0 -22 21 1c65,3 129,7 194,14l8 1 0 -1 24 4c219,42 435,103 647,175l3 1zm-2536 889c-10,35 -19,71 -29,107 -21,78 -42,156 -64,234l-5 18 -18 -3c-60,-11 -121,-21 -183,-29l-13 -2 -3 -13c-14,-56 -30,-112 -45,-167 -22,-81 -44,-161 -68,-240 -18,-60 -39,-119 -58,-178 -26,-78 -54,-155 -81,-233l-9 -25 27 -1c118,-6 235,-19 351,-39l19 -3 4 19c12,58 25,117 38,175 8,38 18,75 27,113 3,13 6,27 9,40 8,-32 16,-65 23,-96 -9,-36 -18,-73 -27,-109 -11,-43 -23,-86 -34,-130l-5 -19 19 -5c108,-28 215,-60 321,-94l23 -8 3 25c9,70 18,140 27,211 6,40 11,80 17,120 1,12 3,24 4,36 1,-8 3,-15 4,-22 9,-53 19,-105 27,-157 14,-80 24,-161 34,-242l2 -12 11 -4c60,-22 120,-45 180,-67l34 -12 -7 35c-20,96 -39,191 -59,287 -26,132 -55,264 -83,396 -17,79 -33,158 -50,237 -20,98 -41,196 -62,294l-4 21 -21 -6c-61,-17 -123,-34 -185,-49l-12 -4 -3 -12c-11,-64 -24,-128 -37,-192 -12,-65 -26,-130 -39,-195zm715 482c-4,25 -8,50 -12,75l-4 23 -22 -7c-50,-15 -101,-31 -151,-46l-17 -5 3 -17c15,-89 29,-178 42,-268 21,-140 42,-280 61,-421 15,-111 27,-223 38,-335 12,-109 22,-218 32,-327l2 -13 12 -4c103,-38 207,-73 311,-107l24 -7 2 24c9,89 18,178 27,266 18,164 35,328 53,491 14,127 28,253 42,379 19,168 38,335 57,503l3 27 -27 -6c-96,-20 -191,-43 -285,-68l-13 -3 -2 -13c-6,-34 -11,-69 -17,-103 -11,9 -23,19 -30,25 -23,20 -45,48 -63,73l-26 33 -10 -41c-9,-40 -19,-81 -29,-121 0,-2 -1,-5 -1,-7zm3159 -587c0,60 -8,120 -30,176 -20,53 -52,98 -92,138 -94,94 -219,141 -348,166 -68,14 -150,33 -219,35l-20 0 -1 -20c-2,-82 -4,-164 -7,-247 -2,-83 -4,-166 -6,-248 -3,-77 -7,-153 -10,-230 -5,-102 -9,-205 -14,-307l-2 -24 24 3c80,10 159,30 237,49 127,31 254,81 350,171 45,41 81,89 104,146 24,61 34,126 34,192zm-3028 378c-9,-52 -19,-104 -29,-155 -6,-31 -12,-61 -20,-92 -6,31 -12,62 -19,93 -11,55 -20,111 -30,167 16,0 33,0 47,-1 17,-1 34,-6 51,-12zm2662 -444c-2,53 -3,105 -4,158 -1,52 -2,103 -3,154 28,-8 53,-22 74,-44 35,-37 47,-86 47,-137 0,-39 -10,-77 -42,-102 -21,-18 -46,-26 -72,-29z"/>
     <path id="1" class="fil8" d="M4811 2583l0 0 10 3 1 1 0 0 17 6c181,67 362,134 544,199l14 5 0 15c-4,73 -8,145 -12,218 -3,74 -7,148 -11,222l-1 26 -25 -8c-27,-9 -55,-16 -82,-23 -23,-6 -47,-10 -71,-13 -2,35 -4,71 -6,107 54,2 111,1 165,-1l25 0 -5 24c-7,33 -13,65 -18,98 -6,33 -10,67 -13,101l-2 23 -22 -6c-20,-5 -51,-5 -72,-6 -19,-1 -42,1 -62,4 -2,44 -3,89 -4,133 39,-9 78,-19 117,-30 19,-5 44,-17 61,-26l37 -17 -8 39c-7,36 -13,73 -19,109 -7,37 -13,75 -18,113l-2 13 -13 4c-154,45 -309,92 -463,138l-25 8 -1 -26c-2,-120 -6,-240 -8,-359 -2,-121 -5,-241 -7,-362 -1,-100 -5,-200 -7,-299 -2,-86 -5,-172 -8,-257 -1,46 -2,92 -3,138 -3,100 -5,199 -7,298l-1 28 -26 -10c-21,-7 -42,-14 -64,-19 -20,-5 -43,-8 -65,-11 -5,89 -7,178 -10,267 -3,92 -5,184 -7,277 -3,128 -7,255 -11,383l0 15 -15 4c-83,21 -167,40 -251,57l-24 5 0 -24c-2,-95 -5,-191 -7,-287 -2,-139 -5,-278 -8,-417 -3,-102 -7,-204 -10,-306 -21,0 -41,1 -61,1 -25,4 -49,9 -73,13l-24 5 0 -24c-2,-121 -5,-241 -7,-362 -1,-56 -2,-112 -3,-168 -1,41 -2,81 -3,122 -3,165 -8,330 -11,495 -3,154 -5,307 -7,461 -2,176 -4,351 -6,527l0 72 -37 -62c-69,-118 -137,-236 -207,-354 -46,-77 -95,-153 -143,-229 -1,79 -2,158 -2,237 0,102 -2,204 -2,306l0 22 -22 -3c-57,-6 -112,-15 -168,-24l-17 -3 0 -16c-2,-110 -5,-219 -7,-328 -4,-176 -8,-352 -12,-528 -4,-155 -8,-310 -13,-466 -4,-128 -8,-256 -13,-384l-1 -16 16 -4c87,-19 174,-35 261,-46l14 -2 6 13c53,107 105,214 156,321 0,-44 -1,-88 -2,-133 -1,-63 -3,-127 -6,-190l0 -22 21 1c65,3 129,7 194,14l8 1 0 -1 24 4c219,42 435,103 647,175l3 1zm-2536 889c-10,35 -19,71 -29,107 -21,78 -42,156 -64,234l-5 18 -18 -3c-60,-11 -121,-21 -183,-29l-13 -2 -3 -13c-14,-56 -30,-112 -45,-167 -22,-81 -44,-161 -68,-240 -18,-60 -39,-119 -58,-178 -26,-78 -54,-155 -81,-233l-9 -25 27 -1c118,-6 235,-19 351,-39l19 -3 4 19c12,58 25,117 38,175 8,38 18,75 27,113 3,13 6,27 9,40 8,-32 16,-65 23,-96 -9,-36 -18,-73 -27,-109 -11,-43 -23,-86 -34,-130l-5 -19 19 -5c108,-28 215,-60 321,-94l23 -8 3 25c9,70 18,140 27,211 6,40 11,80 17,120 1,12 3,24 4,36 1,-8 3,-15 4,-22 9,-53 19,-105 27,-157 14,-80 24,-161 34,-242l2 -12 11 -4c60,-22 120,-45 180,-67l34 -12 -7 35c-20,96 -39,191 -59,287 -26,132 -55,264 -83,396 -17,79 -33,158 -50,237 -20,98 -41,196 -62,294l-4 21 -21 -6c-61,-17 -123,-34 -185,-49l-12 -4 -3 -12c-11,-64 -24,-128 -37,-192 -12,-65 -26,-130 -39,-195zm715 482c-4,25 -8,50 -12,75l-4 23 -22 -7c-50,-15 -101,-31 -151,-46l-17 -5 3 -17c15,-89 29,-178 42,-268 21,-140 42,-280 61,-421 15,-111 27,-223 38,-335 12,-109 22,-218 32,-327l2 -13 12 -4c103,-38 207,-73 311,-107l24 -7 2 24c9,89 18,178 27,266 18,164 35,328 53,491 14,127 28,253 42,379 19,168 38,335 57,503l3 27 -27 -6c-96,-20 -191,-43 -285,-68l-13 -3 -2 -13c-6,-34 -11,-69 -17,-103 -11,9 -23,19 -30,25 -23,20 -45,48 -63,73l-26 33 -10 -41c-9,-40 -19,-81 -29,-121 0,-2 -1,-5 -1,-7zm3159 -587c0,60 -8,120 -30,176 -20,53 -52,98 -92,138 -94,94 -219,141 -348,166 -68,14 -150,33 -219,35l-20 0 -1 -20c-2,-82 -4,-164 -7,-247 -2,-83 -4,-166 -6,-248 -3,-77 -7,-153 -10,-230 -5,-102 -9,-205 -14,-307l-2 -24 24 3c80,10 159,30 237,49 127,31 254,81 350,171 45,41 81,89 104,146 24,61 34,126 34,192zm-3028 378c-9,-52 -19,-104 -29,-155 -6,-31 -12,-61 -20,-92 -6,31 -12,62 -19,93 -11,55 -20,111 -30,167 16,0 33,0 47,-1 17,-1 34,-6 51,-12zm2662 -444c-2,53 -3,105 -4,158 -1,52 -2,103 -3,154 28,-8 53,-22 74,-44 35,-37 47,-86 47,-137 0,-39 -10,-77 -42,-102 -21,-18 -46,-26 -72,-29z"/>
    </g>
   </g>
   <g>
    <path class="fil3" d="M2838 2996l-173 -36 0 0 2 -10 3 -11 2 -11 2 -10 2 -11 2 -10 2 -10 2 -10 2 -10 2 -10 2 -10 2 -9 2 -10 2 -9 2 -9 2 -9 1 -9 2 -9 2 -9 2 -8 1 -9 2 -8 2 -8 1 -8 2 -8 2 -8 1 -8 2 -7 1 -8 2 -7 1 -7 2 -7 173 36 -2 7 -1 7 -1 8 -2 7 -2 7 -1 8 -2 8 -1 8 -2 8 -2 8 -1 8 -2 9 -2 8 -2 9 -1 9 -2 9 -2 9 -2 9 -2 9 -2 9 -2 10 -2 10 -2 9 -2 10 -2 10 -2 11 -2 10 -2 10 -2 11 -2 10 -2 11 -3 11 0 0zm-83 397l-173 -37 0 -1 3 -13 3 -14 3 -14 3 -14 2 -13 3 -14 3 -13 3 -13 3 -14 3 -13 2 -12 3 -13 3 -13 3 -13 2 -12 3 -13 2 -12 3 -12 3 -12 2 -12 3 -12 2 -12 3 -12 2 -11 2 -12 3 -11 2 -11 2 -11 3 -11 2 -11 2 -11 2 -11 173 36 -2 11 -2 11 -2 11 -2 11 -3 11 -2 12 -3 11 -2 12 -2 11 -3 12 -2 12 -3 12 -2 12 -3 12 -3 12 -2 13 -3 12 -3 13 -2 12 -3 13 -3 13 -3 13 -2 13 -3 13 -3 13 -3 14 -3 13 -3 14 -3 13 -2 14 -3 14 -3 14 0 0zm-50 237l-173 -37 0 0 2 -8 2 -9 1 -8 2 -8 2 -8 2 -8 1 -8 2 -8 1 -8 2 -8 2 -8 1 -8 2 -7 1 -8 2 -7 2 -8 1 -7 2 -8 1 -7 2 -7 1 -7 2 -7 1 -7 1 -7 2 -7 1 -7 2 -7 1 -6 2 -7 1 -7 1 -6 2 -6 173 37 -2 6 -1 7 -1 6 -2 7 -1 6 -2 7 -1 7 -1 7 -2 6 -1 7 -2 7 -1 8 -2 7 -1 7 -2 7 -1 8 -2 7 -1 7 -2 8 -2 8 -1 7 -2 8 -1 8 -2 8 -2 8 -1 8 -2 8 -2 8 -1 8 -2 9 -2 8 -2 9 0 0zm-172 361l47 -172 -110 67 2 -10 3 -10 2 -10 2 -9 2 -10 2 -10 2 -10 2 -9 2 -10 2 -10 2 -9 2 -9 2 -10 2 -9 2 -9 2 -10 2 -9 2 -9 2 -9 2 -9 2 -9 1 -9 2 -8 2 -9 2 -9 2 -8 2 -9 1 -8 2 -9 2 -8 2 -9 1 -8 173 37 -1 8 -2 8 -2 9 -2 8 -1 9 -2 8 -2 9 -2 9 -2 9 -2 8 -1 9 -2 9 -2 9 -2 9 -2 9 -2 10 -2 9 -2 9 -2 10 -2 9 -2 9 -2 10 -2 9 -2 10 -2 10 -2 9 -2 10 -2 10 -2 10 -2 10 -3 10 -2 10 -110 67zm110 -67c-10,48 -57,78 -105,68 -48,-10 -78,-58 -68,-106l173 38zm-359 -53l174 -32 -65 -70 6 1 5 2 6 1 6 2 6 1 6 2 6 1 6 2 6 1 5 2 6 2 6 1 6 2 6 1 6 2 6 1 5 2 6 2 6 1 6 2 6 1 6 2 6 2 5 1 6 2 6 1 6 2 6 2 6 1 6 2 5 1 6 2 -47 172 -5 -2 -6 -1 -6 -2 -6 -1 -6 -2 -5 -2 -6 -1 -6 -2 -6 -1 -6 -2 -5 -2 -6 -1 -6 -2 -6 -1 -5 -2 -6 -1 -6 -2 -6 -2 -5 -1 -6 -2 -6 -1 -6 -2 -5 -1 -6 -2 -6 -1 -5 -2 -6 -1 -6 -2 -6 -1 -5 -2 -6 -1 -6 -1 -65 -71zm65 71c-47,-13 -76,-61 -64,-109 12,-47 60,-76 108,-64l-44 173zm-102 -262l174 -34 0 0 1 7 2 8 1 7 2 7 1 7 1 7 2 7 1 7 1 6 2 7 1 7 1 6 1 6 1 7 2 6 1 6 1 6 1 6 1 6 1 5 1 6 2 6 1 5 1 5 1 6 1 5 1 5 0 5 1 5 1 5 1 4 1 5 -174 32 -1 -4 -1 -5 0 -4 -1 -5 -1 -5 -1 -5 -1 -5 -1 -5 -1 -5 -1 -6 -1 -5 -1 -6 -1 -5 -1 -6 -2 -6 -1 -6 -1 -6 -1 -6 -1 -6 -2 -7 -1 -6 -1 -7 -1 -6 -2 -7 -1 -7 -1 -7 -2 -7 -1 -7 -1 -7 -2 -7 -1 -8 -2 -7 0 0zm115 -273l-171 -45 172 4 2 10 2 10 3 10 2 10 2 9 2 10 2 9 2 10 2 9 1 9 2 9 2 10 2 9 2 9 2 8 2 9 1 9 2 8 2 9 2 8 1 9 2 8 2 8 1 9 2 8 2 7 1 8 2 8 1 8 2 8 1 7 2 8 -174 34 -1 -7 -2 -8 -1 -7 -2 -8 -1 -7 -2 -8 -1 -8 -2 -8 -1 -8 -2 -8 -2 -8 -1 -9 -2 -8 -2 -8 -2 -9 -1 -9 -2 -8 -2 -9 -2 -9 -2 -9 -2 -9 -2 -9 -2 -9 -1 -10 -2 -9 -2 -9 -2 -10 -2 -10 -2 -9 -3 -10 -2 -10 -2 -10 172 4zm-172 -4c-10,-48 21,-95 68,-105 48,-11 95,20 105,68l-173 37zm122 194l-170 -47 0 0 1 -6 2 -7 2 -7 2 -6 1 -7 2 -6 2 -6 1 -7 2 -6 2 -6 1 -6 2 -6 2 -6 1 -7 2 -6 1 -5 2 -6 1 -6 2 -6 1 -6 2 -5 1 -6 2 -5 1 -6 2 -5 1 -6 2 -5 1 -5 1 -6 2 -5 1 -5 1 -5 171 45 -1 5 -1 6 -2 5 -1 5 -1 5 -2 6 -1 5 -2 6 -1 5 -2 6 -1 5 -2 6 -1 6 -2 6 -1 5 -2 6 -1 6 -2 6 -1 6 -2 6 -2 7 -1 6 -2 6 -2 6 -1 7 -2 6 -2 6 -1 7 -2 7 -2 6 -2 7 -2 7 0 0zm-165 299l31 -176 -100 64 2 -8 2 -8 2 -8 2 -8 3 -8 2 -7 2 -8 2 -8 2 -7 2 -8 2 -8 2 -7 2 -8 3 -7 2 -8 2 -7 2 -7 2 -7 2 -8 1 -7 2 -7 2 -7 2 -7 2 -7 2 -7 2 -7 2 -6 2 -7 1 -7 2 -6 2 -7 2 -7 170 47 -1 6 -2 7 -2 7 -2 7 -2 6 -1 7 -2 7 -2 7 -2 7 -2 7 -2 7 -2 8 -2 7 -2 7 -2 7 -2 8 -2 7 -2 8 -2 7 -2 8 -2 7 -2 8 -2 7 -3 8 -2 8 -2 8 -2 7 -2 8 -2 8 -3 8 -2 8 -2 8 -101 64zm101 -64c-13,47 -62,75 -109,62 -47,-13 -75,-62 -61,-110l170 48zm-354 -31l171 -44 -74 -67 6 1 6 1 6 1 6 1 5 1 6 0 6 1 6 1 6 1 6 1 6 1 5 1 6 1 6 1 6 1 6 0 6 1 6 1 5 1 6 1 6 1 6 1 6 1 6 1 5 1 6 1 6 1 6 1 6 1 6 1 5 1 6 1 -31 176 -5 -1 -6 -1 -6 -1 -5 -1 -6 -1 -6 -1 -5 -1 -6 -1 -5 -1 -6 -1 -6 -1 -5 -1 -6 -1 -6 -1 -5 -1 -6 -1 -6 0 -5 -1 -6 -1 -5 -1 -6 -1 -6 -1 -5 -1 -6 -1 -5 0 -6 -1 -6 -1 -5 -1 -6 -1 -6 0 -5 -1 -6 -1 -73 -66zm73 66c-48,-7 -82,-51 -75,-100 6,-49 51,-83 99,-77l-24 177zm-118 -232l171 -47 0 0 1 6 2 7 2 6 1 6 2 6 2 6 1 6 2 6 1 6 2 5 2 6 1 6 2 5 1 6 2 5 1 5 1 6 2 5 1 5 1 5 2 5 1 5 1 4 2 5 1 5 1 4 1 5 1 4 2 5 1 4 1 4 1 5 -171 44 -1 -4 -1 -4 -2 -4 -1 -4 -1 -5 -1 -4 -1 -4 -1 -5 -1 -4 -2 -5 -1 -5 -1 -5 -2 -5 -1 -5 -1 -5 -2 -5 -1 -5 -2 -6 -1 -5 -2 -5 -1 -6 -2 -6 -1 -5 -2 -6 -1 -6 -2 -6 -2 -6 -1 -6 -2 -6 -2 -6 -1 -7 -2 -6 0 0zm-68 -239l170 -51 0 0 2 9 3 9 2 8 3 9 2 8 3 8 2 8 3 9 2 8 2 8 2 8 3 8 2 8 2 7 2 8 3 8 2 7 2 8 2 7 2 7 2 8 2 7 2 7 2 7 2 7 2 7 2 7 1 7 2 6 2 7 2 6 2 7 -171 47 -2 -7 -2 -6 -1 -7 -2 -6 -2 -7 -2 -6 -2 -7 -1 -7 -2 -7 -2 -7 -2 -7 -2 -7 -2 -8 -2 -7 -2 -7 -3 -8 -2 -7 -2 -8 -2 -7 -2 -8 -2 -8 -3 -8 -2 -7 -2 -8 -3 -8 -2 -9 -2 -8 -3 -8 -2 -8 -3 -9 -2 -8 -3 -9 0 0zm-57 -175l167 -57 0 0 2 6 3 7 2 6 2 6 2 6 2 6 2 6 2 7 2 6 2 5 2 6 2 6 2 6 2 6 2 5 2 6 1 6 2 5 2 6 2 5 2 6 2 5 1 6 2 5 2 5 1 5 2 6 2 5 1 5 2 5 1 5 2 5 -170 51 -1 -4 -1 -5 -2 -4 -1 -5 -2 -5 -1 -4 -2 -5 -1 -5 -2 -5 -2 -5 -1 -5 -2 -6 -2 -5 -1 -5 -2 -6 -2 -5 -2 -6 -2 -5 -2 -6 -2 -6 -2 -5 -2 -6 -2 -6 -2 -6 -2 -6 -2 -6 -2 -6 -2 -7 -2 -6 -2 -6 -2 -7 -2 -6 0 0zm-1 -350l8 178 79 -119 3 8 3 8 3 8 3 8 2 8 3 8 3 7 3 8 2 8 3 8 3 7 2 8 3 7 2 8 3 7 2 7 3 7 3 8 2 7 2 7 3 7 2 7 3 7 2 7 2 7 3 7 2 7 2 6 3 7 2 7 2 6 2 7 -167 57 -2 -7 -3 -6 -2 -6 -2 -7 -2 -7 -2 -6 -3 -7 -2 -7 -2 -7 -3 -6 -2 -7 -3 -7 -2 -7 -2 -7 -3 -8 -2 -7 -3 -7 -2 -7 -3 -8 -3 -7 -2 -8 -3 -7 -3 -8 -2 -7 -3 -8 -3 -8 -2 -8 -3 -7 -3 -8 -3 -8 -3 -8 -2 -9 79 -118zm-79 118c-17,-46 7,-97 53,-113 46,-17 97,8 113,54l-166 59zm523 -87l-174 37 102 70 -11 2 -12 1 -11 2 -12 2 -11 2 -11 2 -12 1 -11 2 -11 1 -12 2 -11 2 -12 1 -11 1 -11 2 -12 1 -11 1 -11 2 -12 1 -11 1 -11 1 -12 1 -11 1 -12 1 -11 1 -11 1 -12 1 -11 1 -11 0 -12 1 -11 1 -12 0 -11 1 -8 -178 11 -1 10 0 11 -1 11 -1 10 0 11 -1 11 -1 10 -1 11 0 11 -1 10 -1 11 -1 11 -1 10 -1 11 -2 11 -1 10 -1 11 -1 11 -1 10 -2 11 -1 11 -2 11 -1 10 -2 11 -1 11 -2 10 -1 11 -2 11 -2 11 -1 10 -2 11 -2 102 69zm-102 -69c48,-8 94,24 102,73 8,48 -24,94 -72,103l-30 -176zm140 243l-173 40 0 0 -2 -8 -1 -7 -2 -7 -2 -8 -1 -7 -2 -7 -1 -6 -2 -7 -1 -7 -2 -6 -1 -6 -1 -6 -2 -6 -1 -6 -1 -6 -1 -6 -1 -5 -2 -5 -1 -6 -1 -5 -1 -5 -1 -4 -1 -5 -1 -5 -1 -4 -1 -4 -1 -4 0 -4 -1 -4 -1 -4 -1 -3 -1 -4 174 -37 0 4 1 3 1 4 1 4 0 3 1 5 1 4 1 4 1 4 1 5 1 5 1 5 1 5 1 5 1 5 1 5 2 6 1 5 1 6 1 6 2 6 1 6 2 7 1 6 1 7 2 6 1 7 2 7 2 7 1 8 2 7 2 8 0 -1zm26 113l-172 41 0 0 -1 -4 -1 -3 0 -4 -1 -3 -1 -4 -1 -3 -1 -3 0 -4 -1 -3 -1 -4 -1 -3 -1 -4 -1 -4 -1 -3 0 -4 -1 -3 -1 -4 -1 -3 -1 -4 -1 -3 -1 -4 0 -4 -1 -3 -1 -4 -1 -3 -1 -4 -1 -4 -1 -3 0 -4 -1 -4 -1 -3 -1 -4 173 -40 0 4 1 3 1 4 1 3 0 3 1 4 1 3 1 4 1 3 1 4 0 3 1 4 1 3 1 4 1 3 1 4 0 3 1 4 1 3 1 4 1 3 1 4 1 4 0 3 1 4 1 3 1 4 1 4 1 3 1 4 0 3 1 4 0 0zm-143 110l169 52 -170 -5 -1 -4 -1 -3 -1 -4 -1 -3 0 -4 -1 -4 -1 -3 -1 -4 -1 -4 -1 -3 -1 -4 0 -3 -1 -4 -1 -4 -1 -3 -1 -4 -1 -3 -1 -4 -1 -4 -1 -3 0 -4 -1 -4 -1 -3 -1 -4 -1 -4 -1 -3 -1 -4 -1 -4 0 -3 -1 -4 -1 -4 -1 -3 172 -41 1 4 1 3 1 4 1 3 0 4 1 3 1 4 1 3 1 4 1 3 0 4 1 4 1 3 1 4 1 3 1 4 1 4 1 3 0 4 1 3 1 4 1 4 1 3 1 4 1 4 1 3 0 4 1 4 1 3 1 4 1 4 1 3 -171 -5zm171 5c11,48 -18,96 -65,108 -48,11 -96,-18 -107,-66l172 -42zm-128 -134l172 -43 1 41 -2 8 -2 8 -2 8 -2 7 -1 8 -2 7 -2 7 -1 7 -2 7 -2 6 -1 7 -2 6 -1 6 -2 6 -1 6 -2 6 -1 6 -1 5 -2 5 -1 6 -1 5 -2 4 -1 5 -1 5 -2 4 -1 5 -1 4 -1 4 -1 4 -1 4 -1 4 -2 3 -169 -52 1 -3 1 -3 1 -3 1 -3 1 -4 1 -3 1 -4 1 -4 1 -4 1 -5 2 -4 1 -5 1 -5 1 -5 2 -5 1 -5 1 -5 2 -6 1 -6 2 -6 1 -6 2 -6 1 -6 2 -7 1 -6 2 -7 2 -7 1 -7 2 -8 2 -7 1 -8 2 -7 0 41zm0 -41c11,-48 59,-78 106,-67 48,11 77,59 67,106l-173 -39zm-27 -72l171 -43 0 0 1 4 1 4 1 3 1 4 1 4 1 4 1 4 1 3 1 4 1 4 1 3 1 4 0 3 1 4 1 4 1 3 1 4 1 3 1 4 0 3 1 4 1 3 1 3 1 4 1 3 0 4 1 3 1 3 1 4 1 3 0 3 1 3 -172 43 0 -3 -1 -4 -1 -3 -1 -3 0 -4 -1 -3 -1 -3 -1 -4 -1 -3 -1 -3 0 -4 -1 -3 -1 -4 -1 -3 -1 -4 -1 -3 -1 -4 0 -3 -1 -4 -1 -3 -1 -4 -1 -3 -1 -4 -1 -4 -1 -4 -1 -3 0 -4 -1 -4 -1 -3 -1 -4 -1 -4 -1 -4 0 0zm29 -238l44 172 64 -109 1 4 1 5 1 4 1 4 1 5 2 4 1 4 1 4 1 5 1 4 1 4 1 4 1 4 2 4 1 4 1 5 1 4 1 4 1 4 1 4 1 4 1 4 1 4 1 4 1 4 1 4 1 4 1 4 1 4 1 4 1 4 1 4 -171 43 -1 -3 -1 -4 -1 -4 -1 -4 -1 -3 -1 -4 -1 -4 -1 -4 -1 -4 -1 -3 -1 -4 -1 -4 -1 -4 -1 -4 -1 -4 -1 -4 -1 -4 -1 -4 -1 -4 -1 -5 -2 -4 -1 -4 -1 -4 -1 -4 -1 -5 -1 -4 -1 -4 -2 -5 -1 -4 -1 -4 -1 -5 -1 -4 63 -109zm-63 109c-13,-48 15,-96 63,-109 47,-13 95,16 108,63l-171 46zm495 -128l-176 22 115 74 -10 3 -10 3 -10 4 -11 3 -10 3 -10 3 -10 4 -10 3 -11 3 -10 3 -10 3 -10 3 -11 3 -10 3 -10 3 -10 3 -10 3 -11 3 -10 3 -10 3 -10 3 -11 3 -10 3 -10 3 -10 2 -11 3 -10 3 -10 3 -10 2 -10 3 -11 3 -10 2 -44 -172 10 -3 10 -2 10 -3 10 -3 10 -2 10 -3 9 -3 10 -2 10 -3 10 -3 10 -3 10 -2 10 -3 10 -3 9 -3 10 -3 10 -3 10 -3 10 -3 10 -3 10 -3 10 -3 10 -3 10 -3 10 -3 9 -3 10 -3 10 -3 10 -3 10 -3 10 -4 10 -3 115 74zm-115 -74c46,-15 96,11 111,58 15,46 -10,97 -57,112l-54 -170zm142 284l-175 24 0 0 -1 -9 -2 -9 -1 -9 -1 -9 -1 -8 -1 -8 -1 -9 -1 -8 -1 -7 -1 -8 -1 -8 -1 -7 -1 -7 -1 -7 -1 -7 -1 -7 -1 -6 0 -6 -1 -7 -1 -6 -1 -6 -1 -5 0 -6 -1 -5 -1 -6 0 -5 -1 -5 0 -4 -1 -5 -1 -5 0 -4 -1 -4 176 -22 0 4 1 4 0 5 1 4 1 5 0 5 1 5 1 5 0 5 1 6 1 5 0 6 1 6 1 6 1 7 1 6 0 7 1 7 1 7 1 7 1 7 1 8 1 7 1 8 1 8 1 8 1 9 1 8 2 9 1 8 1 9 1 9 0 0zm16 121l-175 23 0 0 -1 -4 0 -5 -1 -4 0 -4 -1 -4 0 -4 -1 -5 0 -4 -1 -4 -1 -4 0 -4 -1 -3 0 -4 -1 -4 0 -4 -1 -4 0 -3 -1 -4 0 -4 -1 -4 0 -3 -1 -4 0 -3 -1 -4 0 -3 -1 -3 0 -4 -1 -3 0 -4 0 -3 -1 -3 0 -3 175 -24 0 3 1 4 0 3 1 3 0 3 1 3 0 4 1 3 0 3 0 4 1 3 0 4 1 4 0 3 1 4 0 4 1 4 1 3 0 4 1 4 0 4 1 4 0 4 1 4 0 4 1 5 0 4 1 4 1 5 0 4 1 4 0 5 0 0zm-153 162l174 31 -174 -4 -1 -6 -1 -6 -1 -6 0 -5 -1 -6 -1 -6 -1 -5 0 -6 -1 -5 -1 -6 -1 -5 0 -6 -1 -5 -1 -5 0 -6 -1 -5 -1 -5 0 -5 -1 -5 -1 -5 0 -5 -1 -5 -1 -5 0 -5 -1 -5 0 -4 -1 -5 -1 -5 0 -4 -1 -5 0 -4 -1 -5 175 -23 1 4 1 5 0 5 1 4 0 5 1 5 1 4 0 5 1 5 0 5 1 5 1 5 0 5 1 5 1 5 0 5 1 5 1 6 0 5 1 5 1 5 0 6 1 5 1 6 1 5 0 6 1 5 1 6 1 6 0 6 1 5 1 6 -175 -3zm175 3c6,49 -28,94 -76,100 -48,7 -93,-27 -99,-76l175 -24zm-148 -154l174 30 0 0 -1 5 -1 5 -1 5 0 4 -1 5 -1 5 -1 5 -1 4 -1 5 0 5 -1 5 -1 4 -1 5 -1 5 -1 5 0 4 -1 5 -1 5 -1 5 -1 4 -1 5 0 5 -1 4 -1 5 -1 5 -1 4 -1 5 0 5 -1 5 -1 4 -1 5 -1 5 -174 -31 1 -5 1 -5 1 -5 1 -4 0 -5 1 -5 1 -4 1 -5 1 -5 0 -4 1 -5 1 -5 1 -5 1 -4 1 -5 0 -5 1 -4 1 -5 1 -5 1 -4 1 -5 0 -5 1 -5 1 -4 1 -5 1 -5 0 -4 1 -5 1 -5 1 -5 1 -5 1 -4 0 0zm27 -156l174 29 0 0 -1 5 -1 5 0 5 -1 5 -1 5 -1 5 -1 5 -1 5 -1 5 0 5 -1 5 -1 5 -1 5 -1 5 -1 5 -1 5 0 5 -1 5 -1 4 -1 5 -1 5 -1 5 -1 5 0 5 -1 5 -1 4 -1 5 -1 5 -1 5 -1 5 0 4 -1 5 -174 -30 0 -5 1 -5 1 -5 1 -5 1 -5 1 -5 1 -5 0 -4 1 -5 1 -5 1 -5 1 -5 1 -5 1 -5 0 -5 1 -4 1 -5 1 -5 1 -5 1 -5 1 -5 0 -5 1 -5 1 -4 1 -5 1 -5 1 -5 0 -5 1 -5 1 -5 1 -5 1 -4 0 0zm91 -312l60 167 58 -72 -2 9 -1 10 -1 9 -1 9 -1 9 -1 9 -2 9 -1 9 -1 8 -1 9 -1 8 -1 8 -1 8 -1 8 -1 8 -2 8 -1 8 -1 7 -1 8 -1 7 -1 7 -1 7 -1 7 -1 7 -1 6 -1 7 -1 7 -1 6 -1 6 -1 6 -1 6 -1 6 -174 -29 1 -6 1 -5 1 -6 0 -6 1 -6 1 -6 1 -6 1 -7 1 -6 1 -7 1 -7 1 -7 1 -7 1 -7 1 -7 1 -8 1 -7 1 -8 1 -8 2 -8 1 -8 1 -8 1 -8 1 -9 1 -8 1 -9 1 -9 1 -9 2 -9 1 -9 1 -9 1 -10 58 -72zm-58 72c6,-48 51,-83 99,-77 48,6 83,51 77,100l-176 -23zm355 -37l-173 -36 117 102 -6 2 -5 2 -6 2 -6 2 -5 2 -6 2 -6 2 -5 2 -6 2 -6 3 -5 2 -6 2 -5 2 -6 2 -6 2 -6 2 -5 2 -6 2 -5 2 -6 3 -6 2 -6 2 -5 2 -6 2 -6 2 -5 2 -6 2 -6 2 -5 2 -6 2 -6 2 -5 2 -60 -167 6 -2 5 -2 6 -2 5 -2 6 -2 5 -2 6 -2 6 -3 5 -2 6 -2 5 -2 6 -2 6 -2 5 -2 6 -2 5 -2 6 -2 6 -2 5 -2 6 -2 6 -3 5 -2 6 -2 6 -2 5 -2 6 -2 6 -2 5 -2 6 -2 5 -2 6 -3 6 -2 117 102zm-117 -102c46,-17 96,7 113,53 17,46 -6,98 -52,115l-61 -168zm319 1499l174 -29 -65 -72 9 3 9 2 9 2 8 3 9 2 9 2 9 2 8 3 9 2 9 2 9 2 8 2 9 3 9 2 9 2 9 2 8 2 9 2 9 2 8 2 9 2 9 2 9 2 8 2 9 2 9 2 9 2 8 2 9 2 9 2 9 2 8 2 -36 174 -9 -2 -9 -2 -9 -2 -9 -2 -9 -2 -9 -2 -9 -2 -9 -2 -9 -2 -9 -2 -9 -2 -9 -2 -10 -2 -9 -2 -9 -3 -9 -2 -9 -2 -9 -2 -9 -2 -9 -3 -9 -2 -9 -2 -9 -2 -9 -3 -9 -2 -9 -2 -9 -2 -9 -3 -9 -2 -9 -2 -9 -3 -9 -2 -64 -72zm64 72c-47,-13 -75,-61 -63,-109 13,-48 61,-76 108,-64l-45 173zm40 -140l-78 -160 127 66 0 4 1 4 1 4 0 4 1 5 1 4 0 4 1 4 1 4 0 4 1 4 1 5 0 4 1 4 1 4 0 4 1 4 1 5 0 4 1 4 1 4 0 4 1 4 1 5 0 4 1 4 1 4 0 4 1 4 1 5 0 4 1 4 -174 29 -1 -4 -1 -4 0 -4 -1 -5 -1 -4 -1 -4 0 -4 -1 -5 -1 -4 0 -4 -1 -4 -1 -5 0 -4 -1 -4 -1 -4 0 -4 -1 -5 -1 -4 0 -4 -1 -4 -1 -4 0 -4 -1 -5 -1 -4 0 -4 -1 -4 -1 -4 0 -5 -1 -4 -1 -4 0 -4 -1 -4 126 66zm-126 -66c-8,-49 25,-94 73,-102 49,-8 94,25 102,74l-175 28zm86 98l-115 -135 0 0 3 -3 3 -3 3 -2 3 -3 3 -2 3 -2 3 -3 2 -2 3 -2 3 -2 2 -2 3 -2 2 -2 2 -2 3 -1 2 -2 2 -2 2 -1 3 -2 2 -1 2 -2 2 -1 2 -2 2 -1 2 -1 2 -1 2 -2 2 -1 2 -1 2 -2 3 -1 2 -1 78 160 2 -1 0 0 0 0 1 -1 0 1 -1 0 0 0 0 0 -1 1 -1 0 -1 1 -1 1 -1 0 -1 1 -2 1 -1 1 -2 2 -1 1 -2 1 -1 1 -2 2 -2 1 -2 2 -2 1 -2 2 -2 2 -2 1 -3 2 -2 2 -3 2 -2 3 -3 2 0 0zm-209 28l172 -42 -156 -33 2 -3 3 -3 2 -4 2 -3 3 -3 2 -2 2 -3 3 -3 2 -3 2 -3 3 -3 2 -3 3 -3 2 -2 2 -3 3 -3 2 -3 2 -3 3 -2 2 -3 3 -2 2 -3 3 -3 2 -2 3 -3 2 -2 3 -3 2 -3 3 -2 3 -2 2 -3 3 -2 115 135 -1 1 -1 1 -1 1 -1 1 -1 1 -2 1 -1 2 -1 1 -2 2 -1 1 -2 2 -1 2 -2 1 -2 2 -1 2 -2 2 -2 2 -2 2 -1 2 -2 3 -2 2 -2 2 -2 3 -2 2 -2 2 -2 3 -2 3 -2 2 -2 3 -2 2 -2 3 -2 3 -156 -34zm156 34c-30,39 -86,46 -125,16 -38,-31 -45,-87 -15,-125l140 109zm-185 -154l172 -43 0 0 0 3 1 4 1 4 1 4 1 4 1 4 1 3 1 4 1 4 1 4 1 4 1 4 1 3 0 4 1 4 1 4 1 4 1 3 1 4 1 4 1 4 1 4 1 3 1 4 0 4 1 4 1 4 1 3 1 4 1 4 1 4 1 3 -172 42 -1 -4 -1 -4 -1 -3 -1 -4 -1 -4 -1 -4 -1 -4 -1 -3 0 -4 -1 -4 -1 -4 -1 -3 -1 -4 -1 -4 -1 -4 -1 -4 -1 -3 0 -4 -1 -4 -1 -4 -1 -3 -1 -4 -1 -4 -1 -4 -1 -3 -1 -4 -1 -4 0 -4 -1 -3 -1 -4 -1 -4 -1 -3 0 0zm147 -107l-174 -29 173 -8 1 4 1 4 1 4 1 4 1 3 1 4 1 4 1 3 0 4 1 3 1 4 1 3 1 3 1 4 1 3 0 3 1 3 1 3 1 3 1 3 0 3 1 3 1 3 0 2 1 3 1 3 0 2 1 3 1 2 0 3 1 2 1 3 -172 43 -1 -3 0 -2 -1 -2 0 -2 -1 -3 -1 -2 0 -3 -1 -2 -1 -3 0 -3 -1 -3 -1 -2 0 -3 -1 -3 -1 -3 -1 -3 -1 -3 0 -3 -1 -4 -1 -3 -1 -3 -1 -4 -1 -3 -1 -4 -1 -3 0 -4 -1 -3 -1 -4 -1 -4 -1 -4 -1 -4 -1 -4 172 -8zm-172 8c-13,-47 16,-96 63,-108 47,-13 95,16 108,63l-171 45zm32 232l51 -170 -112 71 0 -5 1 -6 1 -5 1 -5 1 -5 1 -6 0 -5 1 -5 1 -6 1 -5 1 -5 1 -5 1 -6 0 -5 1 -5 1 -6 1 -5 1 -5 1 -6 1 -5 0 -5 1 -5 1 -6 1 -5 1 -5 1 -6 1 -5 0 -5 1 -6 1 -5 1 -5 1 -6 174 29 0 6 -1 5 -1 5 -1 6 -1 5 -1 5 -1 5 0 6 -1 5 -1 5 -1 6 -1 5 -1 5 -1 5 -1 6 0 5 -1 5 -1 6 -1 5 -1 5 -1 5 0 6 -1 5 -1 5 -1 5 -1 5 -1 6 0 5 -1 5 -1 5 -1 6 -1 5 -113 71zm113 -71c-7,48 -53,82 -101,74 -48,-8 -81,-53 -73,-102l174 28zm-325 -75l174 30 -61 -100 4 1 5 2 5 1 5 1 4 2 5 1 5 2 4 1 5 2 5 1 4 2 5 1 5 1 4 2 5 1 5 2 5 1 4 2 5 1 5 1 4 2 5 1 5 2 4 1 5 2 5 1 5 1 4 2 5 1 5 2 5 1 4 2 -51 170 -4 -1 -5 -2 -5 -1 -5 -1 -4 -2 -5 -1 -5 -2 -5 -1 -4 -2 -5 -1 -5 -2 -4 -1 -5 -1 -5 -2 -5 -1 -4 -2 -5 -1 -5 -2 -5 -1 -4 -2 -5 -1 -5 -1 -4 -2 -5 -1 -5 -2 -5 -1 -4 -2 -5 -1 -5 -2 -5 -1 -4 -1 -5 -2 -61 -100zm61 100c-47,-14 -73,-64 -59,-111 15,-47 64,-74 111,-59l-52 170zm-20 -366l175 26 0 0 -1 11 -2 10 -1 11 -2 10 -1 10 -2 10 -1 9 -2 10 -1 9 -2 10 -1 9 -2 9 -1 9 -1 9 -2 8 -1 9 -1 8 -2 8 -1 8 -1 8 -1 8 -2 8 -1 7 -1 8 -1 7 -1 7 -2 7 -1 7 -1 6 -1 7 -1 6 -1 7 -174 -30 1 -6 1 -6 1 -7 1 -6 1 -7 1 -7 1 -7 1 -7 2 -7 1 -8 1 -7 1 -8 1 -8 2 -8 1 -8 1 -8 2 -9 1 -8 1 -9 2 -9 1 -8 1 -9 2 -10 1 -9 2 -10 1 -9 2 -10 1 -10 2 -10 1 -10 2 -10 1 -11 0 0zm61 -420l175 24 0 0 -2 16 -2 15 -2 15 -2 16 -2 15 -2 14 -2 15 -3 15 -2 14 -2 14 -2 14 -2 14 -2 14 -2 14 -2 13 -1 13 -2 13 -2 13 -2 13 -2 13 -2 12 -2 13 -2 12 -1 12 -2 12 -2 11 -2 12 -1 11 -2 12 -2 11 -1 11 -2 10 -175 -26 2 -11 1 -11 2 -11 2 -11 1 -11 2 -12 2 -12 2 -12 2 -12 1 -12 2 -12 2 -13 2 -12 2 -13 2 -13 2 -13 1 -13 2 -13 2 -14 2 -13 2 -14 2 -14 2 -14 2 -14 2 -15 2 -14 2 -15 3 -15 2 -15 2 -15 2 -15 2 -16 0 0zm38 -333l176 18 0 0 -1 11 -1 10 -1 11 -1 10 -1 11 -1 10 -2 11 -1 10 -1 10 -1 11 -1 10 -1 11 -1 11 -2 10 -1 11 -1 10 -1 11 -1 10 -2 11 -1 11 -1 10 -1 11 -2 11 -1 10 -1 11 -2 11 -1 10 -1 11 -2 11 -1 11 -1 10 -2 11 -175 -24 1 -10 2 -11 1 -10 1 -11 2 -10 1 -11 1 -10 2 -11 1 -10 1 -10 1 -11 2 -10 1 -11 1 -10 1 -11 1 -10 2 -11 1 -10 1 -10 1 -11 1 -10 1 -10 1 -11 2 -10 1 -11 1 -10 1 -10 1 -11 1 -10 1 -10 1 -11 1 -10 0 0zm90 -402l60 167 58 -75 -1 10 0 10 -1 10 -1 10 -1 10 -1 10 -1 11 -1 10 -1 10 -1 10 -1 10 -1 11 -1 10 -1 10 -1 10 -1 11 -1 10 -1 10 -1 10 -1 11 -1 10 -1 10 -1 11 -1 10 -1 11 -1 10 -2 10 -1 11 -1 10 -1 11 -1 10 -1 10 -176 -18 1 -10 1 -11 1 -10 1 -11 2 -10 1 -10 1 -11 1 -10 1 -10 1 -11 1 -10 1 -10 1 -10 1 -11 1 -10 1 -10 1 -10 1 -10 1 -11 1 -10 1 -10 1 -10 1 -10 1 -10 1 -10 1 -10 1 -10 1 -11 1 -10 0 -10 1 -10 1 -9 58 -76zm-58 76c5,-49 48,-86 96,-81 49,4 85,48 80,97l-176 -16zm488 -107l-176 16 114 77 -9 3 -10 3 -10 3 -9 4 -10 3 -9 3 -10 3 -10 3 -9 3 -10 4 -10 3 -9 3 -10 3 -10 4 -9 3 -10 3 -9 3 -10 4 -10 3 -9 3 -10 4 -10 3 -9 4 -10 3 -9 3 -10 4 -10 3 -9 4 -10 3 -10 4 -9 3 -10 3 -60 -167 10 -4 10 -3 10 -4 10 -3 9 -4 10 -3 10 -4 10 -3 10 -4 9 -3 10 -4 10 -3 10 -3 10 -4 10 -3 9 -4 10 -3 10 -3 10 -4 10 -3 10 -3 9 -4 10 -3 10 -3 10 -3 10 -4 10 -3 9 -3 10 -3 10 -3 10 -4 10 -3 115 77zm-115 -77c46,-15 96,11 111,58 15,47 -11,97 -58,112l-53 -170zm141 342l-176 19 0 0 -1 -12 -1 -11 -1 -11 -1 -11 -1 -11 -1 -11 -2 -10 -1 -10 -1 -10 -1 -10 -1 -9 -1 -9 0 -9 -1 -9 -1 -9 -1 -8 -1 -9 -1 -8 -1 -8 0 -7 -1 -8 -1 -7 0 -7 -1 -7 -1 -6 0 -7 -1 -6 0 -6 -1 -6 -1 -5 0 -5 0 -6 176 -16 0 5 1 5 0 6 1 5 0 6 1 6 0 7 1 6 1 7 0 7 1 7 1 7 0 8 1 7 1 8 1 8 1 9 1 9 0 8 1 9 1 10 1 9 1 10 1 10 1 10 1 10 2 10 1 11 1 11 1 11 1 11 1 12 0 0zm53 491l-176 19 0 0 -2 -18 -2 -19 -2 -18 -2 -19 -2 -18 -2 -17 -2 -18 -1 -17 -2 -17 -2 -17 -2 -16 -2 -17 -1 -16 -2 -16 -2 -16 -1 -15 -2 -15 -2 -15 -1 -15 -2 -15 -1 -14 -2 -14 -1 -14 -2 -14 -1 -13 -2 -13 -1 -13 -1 -13 -2 -13 -1 -12 -1 -12 -2 -12 176 -19 2 12 1 12 1 12 2 13 1 13 1 13 2 13 1 13 2 14 1 14 2 14 1 14 2 15 1 15 2 15 1 15 2 15 2 16 1 16 2 16 2 16 2 17 2 17 1 17 2 17 2 17 2 18 2 18 2 18 2 18 2 19 2 19 0 0zm42 378l-175 20 0 0 -2 -13 -1 -14 -2 -13 -1 -13 -2 -14 -1 -13 -2 -12 -1 -13 -2 -13 -1 -12 -1 -13 -2 -12 -1 -13 -1 -12 -2 -12 -1 -12 -1 -11 -2 -12 -1 -12 -1 -11 -2 -11 -1 -12 -1 -11 -1 -11 -2 -11 -1 -10 -1 -11 -1 -11 -1 -10 -1 -10 -2 -10 -1 -11 176 -19 1 10 1 10 2 10 1 11 1 10 1 11 1 11 1 10 2 11 1 12 1 11 1 11 2 11 1 12 1 12 2 11 1 12 1 12 2 12 1 13 1 12 2 12 1 13 2 13 1 13 1 12 2 14 1 13 2 13 1 13 2 14 1 13 0 0zm-49 600l36 -174 -106 97 -2 -18 -1 -17 -2 -17 -2 -18 -2 -17 -2 -17 -2 -17 -2 -16 -2 -17 -2 -16 -2 -17 -1 -16 -2 -16 -2 -16 -2 -16 -2 -16 -2 -15 -1 -16 -2 -15 -2 -16 -1 -15 -2 -15 -2 -15 -2 -15 -1 -14 -2 -15 -1 -14 -2 -15 -2 -14 -1 -14 -2 -14 -1 -14 175 -20 2 14 1 14 2 14 2 14 1 15 2 14 2 15 1 14 2 15 2 15 1 15 2 15 2 15 1 16 2 15 2 16 2 16 2 16 1 16 2 16 2 16 2 16 2 17 2 16 2 17 2 17 1 17 2 17 2 17 2 18 2 17 2 18 -106 97zm106 -97c6,49 -29,93 -78,98 -48,6 -92,-29 -98,-78l176 -20zm-533 -547l174 -34 0 0 1 7 2 7 1 8 1 7 2 6 1 7 1 7 1 6 2 7 1 6 1 6 1 6 1 6 1 6 1 5 1 6 1 5 1 6 1 5 1 5 1 5 1 4 0 5 1 5 1 4 1 4 0 4 1 4 1 4 0 4 1 4 1 3 -175 29 -1 -3 0 -4 -1 -3 0 -4 -1 -4 -1 -4 0 -4 -1 -4 -1 -4 -1 -5 0 -4 -1 -5 -1 -5 -1 -5 -1 -5 -1 -5 -1 -5 -1 -6 -1 -6 -1 -5 -1 -6 -1 -6 -1 -6 -1 -6 -2 -7 -1 -6 -1 -7 -1 -7 -2 -7 -1 -7 -1 -7 -2 -7 0 0zm132 -176l-172 -38 172 -2 2 7 1 7 2 6 2 7 1 7 2 6 1 7 2 6 1 7 2 6 1 6 2 6 1 6 2 6 1 6 1 5 2 6 1 6 1 5 1 6 2 5 1 5 1 5 1 5 1 5 1 5 1 5 1 5 1 4 1 5 1 4 1 5 -174 34 -1 -4 0 -4 -1 -4 -1 -4 -1 -4 -1 -5 -1 -4 -1 -5 -1 -4 -1 -5 -1 -5 -1 -5 -1 -5 -1 -5 -2 -6 -1 -5 -1 -5 -1 -6 -2 -6 -1 -6 -2 -5 -1 -6 -1 -6 -2 -7 -1 -6 -2 -6 -2 -6 -1 -7 -2 -7 -1 -6 -2 -7 -2 -7 172 -3zm-172 3c-12,-48 17,-96 65,-108 47,-12 95,17 107,65l-172 43zm135 175l-173 -36 0 0 2 -8 1 -7 2 -8 1 -7 2 -7 1 -7 1 -7 2 -7 1 -6 2 -7 1 -6 1 -6 1 -6 2 -6 1 -6 1 -6 1 -5 1 -6 2 -5 1 -5 1 -5 1 -5 1 -5 1 -4 1 -5 1 -4 1 -5 0 -4 1 -4 1 -3 1 -4 1 -4 172 38 0 4 -1 3 -1 4 -1 4 -1 4 -1 4 0 4 -1 5 -1 4 -1 5 -1 5 -1 5 -1 5 -2 5 -1 6 -1 5 -1 6 -1 5 -1 6 -2 6 -1 7 -1 6 -2 6 -1 7 -1 7 -2 6 -1 7 -2 7 -1 8 -2 7 -1 7 -2 8 0 0zm-106 83l-28 176 -73 -103 1 -7 1 -8 2 -7 1 -7 1 -7 1 -7 1 -7 1 -6 2 -7 1 -7 1 -6 1 -7 1 -6 1 -6 1 -6 1 -6 1 -6 1 -6 1 -6 1 -6 1 -5 1 -6 1 -5 1 -6 1 -5 1 -5 1 -5 1 -5 1 -5 1 -5 1 -5 1 -4 173 36 -1 4 -1 4 0 5 -1 4 -1 5 -1 5 -1 4 -1 5 -1 5 -1 6 -1 5 -1 5 -1 6 -1 5 -1 6 -1 6 -1 6 -1 6 -1 6 -1 6 -1 6 -1 6 -1 7 -1 7 -1 6 -2 7 -1 7 -1 7 -1 7 -1 7 -1 7 -2 8 -73 -103zm73 103c-8,48 -53,81 -102,73 -48,-9 -80,-55 -72,-103l174 30zm-21 -103l10 178 0 0 -4 0 -4 0 -3 0 -4 0 -3 1 -4 0 -3 0 -3 0 -4 0 -3 0 -3 0 -3 0 -3 0 -3 0 -3 0 -2 0 -3 0 -3 0 -2 -1 -3 0 -2 0 -3 0 -2 0 -2 0 -3 0 -2 -1 -2 0 -2 0 -2 0 -2 -1 -2 0 -3 0 28 -176 0 0 0 0 0 0 0 0 1 0 1 0 0 0 1 0 1 0 1 0 1 0 2 0 1 0 2 1 1 0 2 0 1 0 2 0 2 0 2 0 2 0 3 0 2 0 2 0 3 0 2 -1 3 0 2 0 3 0 3 0 3 0 3 0 0 0zm-10 84l175 -29 -54 97 -3 1 -3 2 -3 1 -3 1 -3 1 -3 1 -3 1 -3 1 -3 1 -3 1 -3 1 -3 1 -3 1 -3 1 -3 1 -3 1 -3 1 -4 0 -3 1 -3 1 -3 1 -3 0 -4 1 -3 0 -3 1 -4 1 -3 0 -3 0 -4 1 -3 0 -4 0 -3 1 -10 -178 1 0 0 0 1 0 1 0 1 -1 1 0 1 0 1 0 1 0 1 0 1 -1 1 0 2 0 1 -1 1 0 2 0 1 -1 1 0 2 -1 2 0 1 -1 2 0 1 -1 2 0 2 -1 2 -1 1 0 2 -1 2 -1 2 0 2 -1 2 -1 -54 97zm54 -97c45,-18 97,4 115,49 19,46 -3,98 -48,116l-67 -165zm1096 -929l-177 -4 0 0 0 -13 1 -13 0 -12 0 -12 1 -12 0 -12 0 -12 0 -11 1 -12 0 -11 0 -11 1 -10 0 -11 0 -11 0 -10 1 -10 0 -10 0 -10 0 -9 1 -10 0 -9 0 -9 1 -9 0 -9 0 -8 0 -9 1 -8 0 -8 0 -8 0 -8 1 -7 0 -8 177 6 -1 8 0 7 0 8 0 8 -1 8 0 8 0 8 0 9 -1 8 0 9 0 9 0 9 -1 10 0 9 0 10 -1 10 0 10 0 10 0 11 -1 10 0 11 0 11 -1 11 0 11 0 12 0 11 -1 12 0 12 0 12 -1 13 0 12 0 13 0 0zm-12 494l-176 -4 0 0 0 -18 0 -18 1 -18 0 -17 1 -18 0 -17 0 -17 1 -17 0 -17 0 -16 1 -17 0 -16 1 -16 0 -16 0 -16 1 -15 0 -16 0 -15 1 -15 0 -15 1 -14 0 -15 0 -14 1 -14 0 -14 0 -14 1 -14 0 -13 0 -14 0 -13 1 -13 0 -12 177 4 0 12 -1 13 0 14 0 13 -1 13 0 14 0 14 -1 14 0 14 0 14 -1 15 0 15 0 14 -1 15 0 16 0 15 -1 16 0 15 -1 16 0 16 0 16 -1 17 0 16 0 17 -1 17 0 17 -1 17 0 18 0 17 -1 18 0 18 -1 18 0 0zm-7 461l-176 -2 0 0 0 -15 0 -16 0 -15 0 -15 0 -15 1 -16 0 -15 0 -15 0 -15 0 -14 1 -15 0 -15 0 -15 0 -14 0 -15 1 -14 0 -15 0 -14 0 -14 1 -15 0 -14 0 -14 0 -14 0 -14 1 -14 0 -14 0 -13 1 -14 0 -14 0 -14 0 -13 1 -14 176 4 0 14 0 13 0 14 -1 13 0 14 0 14 0 13 -1 14 0 14 0 14 0 14 -1 14 0 15 0 14 0 14 -1 14 0 15 0 14 0 15 0 15 -1 14 0 15 0 15 0 15 0 15 -1 15 0 15 0 15 0 15 0 15 0 16 -1 15 0 0zm-170 571l152 -91 -164 45 0 -18 0 -17 0 -17 1 -18 0 -17 0 -17 0 -17 0 -17 0 -17 1 -17 0 -17 0 -16 0 -17 0 -17 1 -16 0 -17 0 -16 0 -17 0 -16 0 -16 1 -16 0 -16 0 -17 0 -15 0 -16 1 -16 0 -16 0 -16 0 -15 0 -16 0 -15 1 -16 176 2 0 15 0 16 0 16 0 15 0 16 -1 16 0 16 0 16 0 16 0 16 -1 16 0 16 0 16 0 16 0 17 0 16 -1 17 0 16 0 17 0 16 0 17 -1 17 0 17 0 17 0 17 0 17 0 17 -1 17 0 17 0 18 0 17 0 18 -165 44zm165 -44c-1,49 -41,88 -90,88 -48,-1 -88,-41 -87,-90l177 2zm-371 -309l151 -92 0 0 9 15 9 15 8 14 8 14 9 14 8 13 8 14 7 13 8 13 7 13 7 12 8 12 7 12 6 12 7 11 7 11 6 11 6 11 6 11 6 10 6 10 6 10 5 9 5 9 6 9 5 9 5 9 4 8 5 8 5 8 4 7 4 7 -152 91 -4 -7 -5 -8 -4 -8 -5 -8 -5 -8 -5 -9 -5 -9 -5 -9 -6 -9 -5 -9 -6 -10 -6 -10 -6 -10 -6 -11 -6 -11 -6 -11 -7 -11 -6 -11 -7 -12 -7 -12 -7 -12 -7 -12 -8 -13 -7 -12 -8 -13 -7 -14 -8 -13 -9 -14 -8 -14 -8 -14 -9 -14 -8 -15 0 0zm-16 -333l-177 -1 164 -47 7 12 7 11 7 12 8 11 6 11 7 11 7 11 7 10 6 11 7 10 6 10 6 10 6 9 6 10 6 9 6 9 5 9 6 9 5 8 5 9 5 8 6 8 4 8 5 8 5 7 4 7 5 8 4 7 4 7 4 6 4 7 4 6 -151 92 -4 -6 -4 -6 -4 -6 -3 -7 -5 -7 -4 -7 -4 -7 -5 -7 -4 -7 -5 -8 -5 -8 -5 -8 -5 -8 -6 -9 -5 -9 -6 -8 -5 -9 -6 -10 -6 -9 -6 -10 -6 -10 -7 -10 -6 -10 -7 -10 -6 -11 -7 -11 -7 -10 -7 -12 -7 -11 -7 -12 -8 -11 -7 -12 163 -47zm-163 47c-26,-42 -14,-97 28,-123 41,-26 96,-14 122,28l-150 95zm161 259l-177 -1 0 0 0 -10 0 -9 0 -10 0 -10 0 -9 0 -10 0 -9 0 -10 0 -9 0 -10 0 -10 0 -9 1 -10 0 -9 0 -10 0 -9 0 -10 0 -10 0 -9 0 -10 0 -9 0 -10 0 -9 1 -10 0 -10 0 -9 0 -10 0 -9 0 -10 0 -9 0 -10 0 -9 177 1 0 10 0 9 0 10 0 9 0 10 0 10 0 9 -1 10 0 9 0 10 0 9 0 10 0 10 0 9 0 10 0 9 0 10 -1 9 0 10 0 9 0 10 0 9 0 10 0 10 0 9 0 10 0 9 0 10 0 9 0 10 0 9 0 10 0 0zm-101 393l20 -177 -99 88 0 -9 1 -10 0 -10 0 -9 0 -10 0 -9 0 -10 0 -9 0 -10 0 -10 0 -9 0 -10 0 -9 0 -10 0 -9 1 -10 0 -9 0 -10 0 -10 0 -9 0 -10 0 -9 0 -10 0 -9 0 -10 0 -9 0 -10 0 -9 1 -10 0 -9 0 -10 0 -9 177 1 -1 9 0 10 0 9 0 10 0 9 0 10 0 10 0 9 0 10 0 9 0 10 0 9 0 10 0 10 -1 9 0 10 0 9 0 10 0 9 0 10 0 9 0 10 0 9 0 10 0 9 0 10 0 9 0 10 -1 9 0 10 0 9 0 10 -98 88zm98 -88c0,49 -40,89 -88,89 -49,-1 -89,-41 -89,-90l177 1zm-343 -23l176 -3 -74 -87 5 1 5 1 6 1 5 1 5 0 5 1 5 1 5 1 6 1 5 1 5 0 5 1 5 1 5 1 5 1 5 0 5 1 5 1 6 1 5 0 5 1 5 1 5 0 5 1 5 1 5 0 5 1 5 1 5 0 5 1 5 0 5 1 -20 177 -6 0 -5 -1 -5 -1 -6 0 -5 -1 -6 -1 -5 -1 -6 0 -5 -1 -5 -1 -6 -1 -5 0 -6 -1 -5 -1 -5 -1 -6 0 -5 -1 -5 -1 -6 -1 -5 -1 -5 0 -6 -1 -5 -1 -5 -1 -5 -1 -6 -1 -5 0 -5 -1 -5 -1 -6 -1 -5 -1 -5 -1 -74 -86zm74 86c-48,-7 -81,-53 -73,-102 7,-48 53,-81 101,-74l-28 176zm-81 -414l176 -4 0 0 1 14 0 13 0 13 1 12 0 13 0 12 0 12 1 12 0 12 0 11 0 12 1 11 0 11 0 11 0 10 1 10 0 11 0 10 0 9 0 10 1 9 0 9 0 10 0 8 0 9 1 8 0 9 0 8 0 7 0 8 0 8 0 7 -176 3 -1 -7 0 -8 0 -7 0 -8 0 -8 0 -8 0 -8 -1 -9 0 -9 0 -9 0 -9 0 -9 -1 -10 0 -9 0 -10 0 -11 0 -10 -1 -10 0 -11 0 -11 0 -11 -1 -12 0 -11 0 -12 0 -12 -1 -12 0 -12 0 -13 -1 -12 0 -13 0 -13 0 -14 0 0zm-12 -527l177 -4 0 0 0 19 0 20 1 19 0 19 1 18 0 19 1 18 0 18 0 18 1 18 0 18 1 17 0 17 0 17 1 17 0 16 1 17 0 16 0 16 1 16 0 15 0 16 1 15 0 15 0 15 1 15 0 14 0 14 1 14 0 14 0 14 0 13 -176 4 -1 -13 0 -14 0 -14 -1 -14 0 -14 0 -14 -1 -15 0 -15 0 -15 -1 -15 0 -16 0 -15 -1 -16 0 -16 0 -16 -1 -17 0 -16 0 -17 -1 -17 0 -17 -1 -17 0 -18 0 -18 -1 -18 0 -18 -1 -18 0 -18 0 -19 -1 -19 0 -19 -1 -19 0 -20 0 0zm-13 -465l176 -6 0 0 1 13 0 14 1 13 0 14 0 13 1 14 0 14 1 14 0 14 0 14 1 14 0 14 1 15 0 14 1 14 0 15 0 15 1 14 0 15 1 15 0 15 0 15 1 15 0 15 1 16 0 15 1 15 0 16 0 15 1 16 0 16 1 16 -177 4 -1 -16 0 -15 0 -16 -1 -16 0 -15 -1 -15 0 -16 0 -15 -1 -15 0 -15 -1 -15 0 -15 -1 -15 0 -15 0 -14 -1 -15 0 -14 -1 -15 0 -14 0 -14 -1 -15 0 -14 -1 -14 0 -14 -1 -14 0 -13 0 -14 -1 -14 0 -13 -1 -14 0 -13 0 -13 0 0zm56 -475l37 175 70 -91 0 11 1 11 0 11 1 11 0 11 1 11 0 11 0 12 1 11 0 12 1 11 0 12 0 12 1 12 0 11 1 12 0 12 0 13 1 12 0 12 1 13 0 12 1 13 0 12 0 13 1 13 0 12 1 13 0 13 0 14 1 13 0 13 -176 6 -1 -14 0 -13 -1 -13 0 -13 -1 -13 0 -13 0 -12 -1 -13 0 -13 -1 -12 0 -13 0 -12 -1 -12 0 -12 -1 -12 0 -12 -1 -12 0 -12 0 -12 -1 -12 0 -11 -1 -12 0 -11 0 -12 -1 -11 0 -11 -1 -11 0 -12 0 -11 -1 -10 0 -11 -1 -11 70 -91zm-70 91c-2,-49 36,-91 85,-93 49,-1 90,37 92,86l-177 7zm427 -89l-159 80 90 48 -7 1 -8 1 -8 1 -8 1 -7 1 -8 2 -8 1 -8 1 -8 1 -7 1 -8 2 -8 1 -8 1 -8 2 -8 1 -7 1 -8 2 -8 1 -8 2 -8 1 -8 2 -8 1 -7 2 -8 1 -8 2 -8 2 -8 1 -8 2 -8 2 -8 1 -8 2 -8 2 -37 -175 8 -1 9 -2 8 -2 8 -2 8 -1 9 -2 8 -2 8 -1 8 -2 9 -2 8 -1 8 -2 9 -1 8 -2 8 -2 9 -1 8 -1 8 -2 9 -1 8 -2 8 -1 9 -2 8 -1 8 -1 9 -1 8 -2 9 -1 8 -1 8 -1 9 -1 8 -2 9 -1 90 49zm-90 -49c48,-6 92,29 98,78 6,49 -28,93 -77,99l-21 -177zm116 491l177 0 -168 38 -6 -13 -6 -12 -6 -13 -6 -13 -6 -13 -6 -12 -6 -13 -7 -13 -6 -12 -6 -13 -6 -13 -6 -12 -6 -13 -6 -12 -6 -13 -6 -12 -6 -13 -6 -13 -6 -12 -6 -12 -6 -13 -6 -12 -6 -13 -6 -12 -6 -13 -6 -12 -6 -12 -6 -13 -6 -12 -7 -12 -6 -12 -6 -12 159 -80 6 12 6 13 6 12 6 12 6 13 6 12 6 13 6 12 7 13 6 12 6 13 6 12 6 13 6 12 6 13 6 13 6 12 6 13 6 13 7 12 6 13 6 13 6 12 6 13 6 13 6 13 6 12 6 13 6 13 6 13 6 13 6 12 -168 39zm168 -39c22,45 3,98 -41,119 -44,21 -97,3 -118,-42l159 -77zm-170 -182l177 -4 0 0 0 5 0 5 0 6 0 5 0 6 1 6 0 6 0 6 0 6 0 6 0 6 0 7 0 6 0 7 0 7 0 7 1 7 0 7 0 8 0 7 0 8 0 7 0 8 0 8 0 8 0 8 0 9 0 8 0 8 0 9 0 9 0 9 -177 0 0 -9 0 -9 0 -8 0 -9 0 -8 0 -8 0 -8 0 -8 0 -8 0 -8 0 -7 0 -7 0 -8 0 -7 0 -7 0 -7 0 -7 -1 -7 0 -6 0 -7 0 -6 0 -6 0 -6 0 -7 0 -5 0 -6 0 -6 0 -5 -1 -6 0 -5 0 -5 0 -5 0 0zm86 -282l-8 178 93 -92 0 7 0 8 1 7 0 7 0 7 0 7 1 7 0 7 0 6 0 7 1 6 0 7 0 6 0 6 0 6 1 6 0 6 0 6 0 6 0 6 0 5 1 6 0 5 0 6 0 5 0 5 0 5 0 5 1 5 0 5 0 4 0 5 -177 4 0 -5 0 -4 0 -5 0 -5 0 -4 -1 -5 0 -5 0 -5 0 -6 0 -5 0 -5 0 -6 -1 -5 0 -6 0 -6 0 -6 0 -6 -1 -6 0 -6 0 -6 0 -7 0 -6 -1 -6 0 -7 0 -7 0 -7 -1 -6 0 -7 0 -7 0 -8 -1 -7 0 -7 92 -93zm-92 93c-2,-49 36,-91 85,-93 49,-2 90,37 92,86l-177 7zm369 13l-177 -6 78 92 -6 -1 -6 -1 -5 0 -6 -1 -6 0 -5 -1 -6 -1 -6 0 -5 -1 -6 0 -6 -1 -6 0 -5 0 -6 -1 -6 0 -6 -1 -5 0 -6 0 -6 -1 -6 0 -6 0 -5 -1 -6 0 -6 0 -6 -1 -6 0 -6 0 -6 0 -6 -1 -6 0 -6 0 -6 -1 8 -178 6 1 6 0 6 0 6 1 7 0 6 0 6 0 6 1 6 0 6 0 6 1 6 0 6 0 7 1 6 0 6 1 6 0 6 0 7 1 6 0 6 1 6 0 7 1 6 0 6 1 7 1 6 0 6 1 7 1 6 0 6 1 7 1 78 91zm-78 -91c48,6 83,50 77,99 -6,49 -50,84 -98,78l21 -177zm745 564l-177 -4 0 0 0 -9 1 -10 0 -9 0 -9 0 -10 1 -9 0 -9 0 -10 0 -9 0 -9 1 -9 0 -10 0 -9 0 -9 1 -9 0 -10 0 -9 0 -9 1 -9 0 -10 0 -9 0 -9 1 -10 0 -9 0 -9 0 -9 1 -9 0 -10 0 -9 0 -9 1 -9 0 -10 177 5 -1 9 0 10 0 9 0 9 -1 9 0 10 0 9 0 9 -1 9 0 9 0 10 0 9 -1 9 0 9 0 10 0 9 -1 9 0 9 0 10 0 9 0 9 -1 9 0 10 0 9 0 9 -1 9 0 10 0 9 0 9 0 9 -1 10 0 9 0 0zm-126 379l61 -167 -119 82 0 -10 1 -9 0 -9 0 -10 0 -9 1 -9 0 -10 0 -9 0 -9 0 -10 1 -9 0 -9 0 -10 0 -9 1 -9 0 -10 0 -9 0 -9 0 -10 1 -9 0 -9 0 -9 0 -10 1 -9 0 -9 0 -10 0 -9 0 -9 1 -9 0 -10 0 -9 0 -9 177 4 0 9 0 9 -1 10 0 9 0 9 0 10 0 9 -1 9 0 10 0 9 0 9 -1 9 0 10 0 9 0 9 0 10 -1 9 0 9 0 10 0 9 -1 9 0 10 0 9 0 9 0 9 -1 10 0 9 0 9 0 10 -1 9 0 9 0 10 -119 81zm119 -81c-1,49 -42,88 -90,87 -49,-1 -88,-42 -87,-91l177 4zm-175 64l43 -173 0 0 3 1 3 0 3 1 3 1 3 1 3 1 3 0 3 1 2 1 3 1 3 1 2 0 2 1 3 1 3 1 2 1 2 0 2 1 3 1 2 0 2 1 2 1 2 1 2 0 2 1 1 0 2 1 2 1 1 0 2 1 2 0 1 1 -61 167 -1 0 -1 -1 -1 0 -2 -1 -1 0 -1 0 -2 -1 -1 0 -2 -1 -1 0 -1 -1 -2 0 -2 -1 -1 -1 -2 0 -2 -1 -2 0 -1 -1 -2 0 -2 -1 -2 -1 -2 0 -2 -1 -2 0 -2 -1 -2 -1 -3 0 -2 -1 -2 0 -3 -1 -2 -1 -2 0 0 0zm20 -96l-177 -10 101 -83 4 0 4 1 3 0 4 1 3 0 4 1 3 0 4 1 3 0 3 1 4 0 3 1 3 0 3 1 3 0 3 1 3 0 3 0 3 1 3 0 3 1 2 0 3 1 3 0 3 1 2 0 3 1 3 0 2 1 3 1 3 0 3 1 -43 173 -1 0 -1 -1 -1 0 -1 0 -1 0 -2 -1 -1 0 -2 0 -2 -1 -2 0 -2 0 -2 -1 -2 0 -3 0 -2 -1 -3 0 -3 -1 -2 0 -3 0 -3 -1 -3 0 -3 -1 -3 0 -4 -1 -3 0 -4 -1 -3 0 -4 -1 -3 0 -4 -1 -4 0 -4 -1 101 -83zm-101 83c-48,-7 -82,-52 -75,-101 7,-48 52,-82 100,-75l-25 176zm91 204l-177 -5 0 0 0 -14 1 -14 0 -14 0 -13 1 -13 0 -13 1 -12 0 -12 0 -11 1 -12 0 -11 1 -10 0 -10 0 -10 1 -10 0 -9 0 -9 1 -9 0 -8 0 -8 1 -7 0 -8 0 -7 0 -6 1 -7 0 -6 0 -5 0 -6 1 -5 0 -4 0 -5 0 -4 177 10 0 4 0 4 -1 4 0 5 0 5 0 5 -1 6 0 6 0 7 0 7 -1 7 0 7 0 8 -1 8 0 9 0 8 -1 10 0 9 0 10 -1 10 0 11 0 10 -1 12 0 11 -1 12 0 12 0 13 -1 13 0 13 -1 13 0 14 0 14 0 0zm-8 276l-177 -4 0 0 0 -10 1 -10 0 -10 0 -10 0 -10 1 -10 0 -10 0 -9 0 -10 1 -9 0 -9 0 -9 0 -9 1 -9 0 -9 0 -9 0 -8 1 -9 0 -8 0 -9 0 -8 0 -8 1 -8 0 -8 0 -8 0 -7 1 -8 0 -7 0 -8 0 -7 1 -7 0 -7 177 5 -1 7 0 7 0 8 0 7 -1 8 0 7 0 8 0 7 0 8 -1 8 0 8 0 8 0 9 -1 8 0 9 0 8 0 9 -1 9 0 8 0 9 0 9 -1 10 0 9 0 9 0 10 -1 9 0 10 0 10 0 10 0 10 -1 10 0 10 0 0zm-78 468l-42 -173 -67 84 0 -13 0 -14 1 -13 0 -14 1 -13 0 -13 0 -13 1 -13 0 -12 0 -13 1 -13 0 -12 0 -13 1 -12 0 -12 0 -12 1 -12 0 -12 0 -11 1 -12 0 -12 0 -11 1 -11 0 -11 0 -12 1 -10 0 -11 0 -11 0 -11 1 -10 0 -11 0 -10 177 4 0 11 0 10 -1 11 0 11 0 10 -1 11 0 11 0 11 0 12 -1 11 0 11 0 12 -1 12 0 11 0 12 -1 12 0 12 0 12 -1 13 0 12 0 12 -1 13 0 13 -1 12 0 13 0 13 -1 13 0 14 0 13 -1 13 0 14 -1 13 -67 84zm67 -84c-1,49 -42,88 -90,87 -49,-1 -88,-42 -86,-92l176 5zm-427 56l177 -3 -106 -85 7 -2 8 -2 8 -1 7 -2 8 -1 8 -2 8 -2 7 -2 8 -1 8 -2 8 -2 7 -1 8 -2 8 -2 7 -1 8 -2 8 -2 8 -2 7 -2 8 -1 8 -2 8 -2 7 -2 8 -2 8 -1 7 -2 8 -2 8 -2 8 -2 7 -2 8 -2 8 -2 42 173 -8 2 -8 2 -8 2 -7 2 -8 2 -8 2 -8 2 -8 2 -8 2 -8 2 -8 1 -8 2 -8 2 -8 2 -8 2 -8 2 -8 1 -8 2 -8 2 -8 2 -8 1 -7 2 -8 2 -8 2 -8 1 -8 2 -8 2 -8 1 -8 2 -8 2 -8 2 -8 1 -106 -86zm106 86c-47,10 -94,-21 -104,-69 -10,-48 21,-95 69,-105l35 174zm-112 -372l177 -4 0 0 0 11 0 11 0 11 1 10 0 10 0 11 0 10 1 10 0 10 0 9 0 10 0 10 1 9 0 9 0 9 0 9 0 9 1 9 0 9 0 8 0 9 0 8 1 8 0 8 0 8 0 8 0 8 0 7 1 8 0 7 0 7 0 7 -177 3 0 -6 0 -8 0 -7 0 -7 -1 -8 0 -7 0 -8 0 -8 0 -8 0 -8 -1 -8 0 -9 0 -8 0 -9 0 -9 -1 -8 0 -9 0 -10 0 -9 0 -9 -1 -10 0 -10 0 -9 0 -10 -1 -10 0 -11 0 -10 0 -10 0 -11 -1 -11 0 -10 0 -11 0 0zm-9 -417l177 -4 0 0 0 15 1 15 0 14 0 15 1 14 0 15 1 14 0 14 0 14 0 14 1 14 0 14 0 13 1 13 0 14 0 13 0 13 1 13 0 12 0 13 0 13 1 12 0 12 0 12 0 12 1 12 0 12 0 11 0 12 0 11 1 11 0 11 -177 4 0 -11 0 -12 -1 -11 0 -11 0 -12 0 -12 -1 -11 0 -12 0 -13 0 -12 0 -12 -1 -12 0 -13 0 -13 0 -13 -1 -13 0 -13 0 -13 0 -13 -1 -14 0 -13 0 -14 -1 -14 0 -14 0 -14 -1 -14 0 -14 0 -15 -1 -14 0 -15 0 -15 -1 -15 0 0zm80 -240l-4 -178 90 86 1 10 0 10 0 10 1 10 0 10 0 10 1 10 0 10 0 10 1 11 0 10 1 10 0 10 0 10 1 10 0 11 0 10 1 10 0 10 0 11 1 10 0 10 0 11 1 10 0 10 0 11 1 10 0 11 0 10 0 11 1 10 0 11 -177 4 0 -10 0 -11 -1 -10 0 -10 0 -11 -1 -10 0 -10 0 -10 0 -11 -1 -10 0 -10 0 -10 -1 -11 0 -10 0 -10 -1 -10 0 -11 -1 -10 0 -10 0 -10 -1 -10 0 -10 0 -10 -1 -10 0 -11 0 -10 -1 -10 0 -10 0 -10 -1 -10 0 -10 0 -10 90 86zm-90 -86c-2,-49 36,-90 85,-92 49,-2 90,37 91,86l-176 6zm21 87l-30 -176 13 -1 2 0 3 0 2 0 3 0 2 0 3 0 3 0 2 0 2 0 3 0 3 -1 2 0 3 0 2 0 3 0 2 0 3 0 2 0 3 0 3 0 2 0 3 0 2 0 3 0 3 0 2 -1 3 0 3 0 2 0 3 0 3 0 2 0 4 178 -3 0 -2 0 -3 0 -2 0 -3 1 -2 0 -3 0 -2 0 -3 0 -2 0 -3 0 -3 0 -2 0 -3 0 -2 0 -3 0 -2 0 -3 0 -3 0 -2 1 -3 0 -2 0 -3 0 -3 0 -2 0 -3 0 -2 0 -3 0 -3 0 -2 0 -3 0 -3 0 14 -1zm-14 1c-48,1 -89,-38 -90,-87 -1,-49 38,-90 87,-91l3 178zm-165 -74l177 -3 -104 -86 2 0 2 -1 3 0 2 -1 2 0 3 -1 2 0 2 0 3 -1 2 0 3 -1 2 0 3 -1 2 0 2 0 3 -1 2 0 2 -1 3 0 2 -1 3 0 2 0 2 -1 3 0 2 -1 3 0 2 -1 2 0 3 0 2 -1 2 0 3 -1 30 176 -3 0 -2 1 -2 0 -3 1 -2 0 -2 0 -3 1 -2 0 -2 1 -3 0 -2 0 -2 1 -2 0 -3 1 -2 0 -2 1 -3 0 -2 0 -2 1 -3 0 -2 1 -2 0 -2 0 -3 1 -2 0 -2 1 -3 0 -2 1 -2 0 -2 0 -3 1 -2 0 -105 -86zm105 86c-48,9 -94,-23 -103,-71 -9,-48 23,-95 71,-104l32 175zm-111 -448l177 -2 0 0 0 11 0 11 0 11 0 12 1 11 0 11 0 11 0 12 0 11 1 11 0 12 0 11 0 11 0 12 1 11 0 11 0 11 0 12 0 11 1 11 0 12 0 11 0 11 1 12 0 11 0 11 0 11 0 12 1 11 0 11 0 12 0 11 -177 3 0 -11 0 -11 0 -12 0 -11 -1 -11 0 -11 0 -12 0 -11 0 -11 -1 -12 0 -11 0 -11 0 -11 -1 -12 0 -11 0 -11 0 -12 0 -11 -1 -11 0 -12 0 -11 0 -11 0 -12 -1 -11 0 -11 0 -12 0 -11 0 -11 -1 -12 0 -11 0 -11 0 -12 0 0zm99 -452l-33 175 105 -88 0 11 0 11 0 12 0 11 0 11 1 12 0 11 0 11 0 12 0 11 1 11 0 12 0 11 0 11 0 12 1 11 0 11 0 12 0 11 0 11 1 12 0 11 0 11 0 12 0 11 1 11 0 12 0 11 0 12 0 11 1 11 0 12 -177 2 0 -11 0 -11 -1 -12 0 -11 0 -11 0 -12 0 -11 -1 -11 0 -11 0 -12 0 -11 0 -11 -1 -12 0 -11 0 -11 0 -12 0 -11 -1 -11 0 -12 0 -11 0 -12 0 -11 -1 -11 0 -12 0 -11 0 -11 0 -12 -1 -11 0 -12 0 -11 0 -11 0 -12 105 -89zm-105 89c-1,-49 38,-89 87,-90 49,-1 89,38 90,88l-177 2zm821 175l-177 -5 60 87 -20 -6 -20 -7 -20 -7 -19 -6 -20 -6 -20 -7 -20 -6 -20 -6 -20 -6 -19 -6 -20 -6 -20 -6 -20 -5 -20 -6 -19 -6 -20 -5 -20 -5 -20 -6 -19 -5 -20 -5 -20 -5 -20 -5 -19 -4 -20 -5 -20 -5 -19 -4 -20 -4 -20 -5 -19 -4 -20 -4 -20 -4 -19 -4 33 -175 20 4 21 5 20 4 21 4 20 4 21 5 20 5 21 4 20 5 21 5 20 5 21 5 21 6 20 5 21 5 20 6 21 6 20 5 20 6 21 6 20 6 21 6 20 6 21 6 20 7 21 6 20 7 21 6 20 7 21 7 20 6 20 7 61 87zm-61 -87c47,16 72,67 56,113 -16,47 -66,72 -112,56l56 -169zm624 517l-176 -8 0 0 0 -7 0 -7 1 -7 0 -7 0 -7 1 -6 0 -7 1 -7 0 -7 0 -7 1 -7 0 -7 0 -7 1 -6 0 -7 0 -7 1 -7 0 -7 0 -7 1 -6 0 -7 1 -7 0 -7 0 -7 1 -7 0 -6 0 -7 1 -7 0 -7 1 -7 0 -6 0 -7 177 10 0 6 -1 7 0 7 -1 7 0 6 0 7 -1 7 0 7 0 7 -1 7 0 6 -1 7 0 7 0 7 -1 7 0 6 0 7 -1 7 0 7 0 7 -1 6 0 7 0 7 -1 7 0 7 -1 7 0 6 0 7 -1 7 0 7 0 7 -1 7 0 -1zm-126 303l54 -170 -115 81 0 -7 0 -7 1 -7 0 -7 0 -7 1 -7 0 -7 1 -7 0 -7 0 -7 1 -7 0 -7 0 -7 1 -7 0 -7 0 -7 1 -7 0 -7 0 -7 1 -6 0 -7 0 -7 1 -7 0 -7 0 -7 1 -7 0 -7 0 -7 1 -7 0 -6 0 -7 1 -7 176 8 0 7 0 7 -1 7 0 7 0 7 -1 7 0 7 0 7 -1 7 0 7 0 7 -1 7 0 7 0 6 -1 7 0 7 0 7 -1 7 0 7 0 7 -1 7 0 7 0 7 -1 7 0 7 -1 7 0 6 0 7 -1 7 0 7 0 7 -1 7 -115 81zm115 -81c-2,49 -43,87 -92,85 -49,-3 -87,-44 -84,-93l176 8zm-192 59l43 -172 0 0 4 1 4 1 4 1 4 1 3 1 4 1 3 0 4 1 3 1 4 1 3 1 3 1 3 1 3 0 3 1 2 1 3 1 3 1 2 0 3 1 2 1 2 0 3 1 1 0 3 1 2 1 2 0 1 1 2 0 2 1 1 0 2 1 -54 170 -1 -1 0 0 -2 0 -1 -1 -1 0 -2 -1 -1 0 -2 0 -2 -1 -2 -1 -2 0 -2 -1 -2 0 -2 -1 -2 -1 -3 0 -2 -1 -3 -1 -2 0 -3 -1 -3 -1 -3 -1 -3 0 -3 -1 -3 -1 -4 -1 -3 -1 -3 -1 -4 -1 -4 -1 -3 -1 -4 -1 0 0zm14 -98l-176 -10 100 -83 3 0 3 0 4 1 3 0 3 1 4 0 3 1 3 0 4 1 3 0 3 1 4 0 3 1 3 1 4 0 3 1 3 0 4 1 3 0 3 1 3 1 4 0 3 1 3 1 3 0 4 1 3 1 3 1 3 0 4 1 3 1 3 1 -43 172 -2 0 -3 -1 -2 0 -2 -1 -3 0 -2 -1 -2 0 -3 -1 -2 0 -3 -1 -2 0 -3 -1 -2 0 -3 -1 -3 0 -2 -1 -3 0 -3 -1 -2 0 -3 -1 -3 0 -3 -1 -3 0 -3 0 -3 -1 -3 0 -3 -1 -3 0 -3 -1 -3 0 -3 0 -3 -1 100 -83zm-100 83c-48,-6 -82,-51 -76,-100 7,-49 51,-83 100,-76l-24 176zm10 -28l-11 178 -83 -93 0 -5 0 -5 1 -4 0 -5 0 -5 0 -5 1 -4 0 -5 0 -5 0 -4 0 -5 1 -5 0 -4 0 -5 0 -5 1 -4 0 -5 0 -5 0 -4 1 -5 0 -5 0 -4 0 -5 1 -5 0 -4 0 -5 0 -5 1 -4 0 -5 0 -5 0 -4 1 -5 176 10 0 4 0 5 -1 5 0 4 0 5 0 4 -1 5 0 5 0 4 0 5 -1 5 0 4 0 5 0 5 -1 4 0 5 0 4 0 5 0 5 -1 4 0 5 0 5 0 4 -1 5 0 4 0 5 0 5 0 4 -1 5 0 4 0 5 0 5 -83 -93zm83 93c-2,49 -44,87 -93,85 -48,-3 -86,-44 -84,-93l177 8zm184 14l-174 -35 89 106 -8 0 -8 1 -8 0 -7 0 -8 0 -7 0 -8 0 -7 0 -7 1 -7 0 -6 0 -7 0 -6 0 -7 0 -6 0 -6 0 -6 0 -6 0 -5 0 -6 0 -6 -1 -5 0 -5 0 -5 0 -5 0 -5 0 -4 0 -5 -1 -5 0 -4 0 -4 0 -4 0 11 -178 3 0 3 0 4 0 3 0 4 1 4 0 4 0 5 0 4 0 5 0 4 0 5 0 5 0 6 0 5 0 6 1 5 0 6 0 6 0 6 -1 6 0 7 0 6 0 7 0 7 0 7 0 7 0 7 0 8 0 7 -1 8 0 8 0 89 107zm-89 -107c49,-1 89,38 91,87 1,49 -38,90 -87,91l-4 -178zm71 203l-174 -30 0 0 1 -5 0 -4 1 -5 1 -4 1 -4 0 -4 1 -5 1 -3 0 -4 1 -4 1 -4 0 -3 1 -4 1 -3 0 -3 1 -4 1 -3 0 -3 1 -3 0 -3 1 -2 0 -3 1 -2 0 -3 1 -2 0 -3 1 -2 0 -2 0 -2 1 -2 0 -2 0 -1 174 35 0 1 -1 2 0 2 -1 2 0 2 0 2 -1 2 0 2 -1 3 0 2 -1 2 0 3 -1 3 0 2 -1 3 0 3 -1 3 0 3 -1 4 -1 3 0 3 -1 4 0 3 -1 4 -1 4 0 4 -1 4 -1 4 -1 4 0 4 -1 4 -1 5 0 0zm-120 173l41 -173 -109 79 1 -4 0 -4 0 -4 1 -3 0 -4 0 -4 1 -3 0 -4 1 -3 0 -4 0 -4 1 -3 0 -4 1 -3 0 -4 0 -3 1 -3 0 -4 1 -3 0 -3 1 -4 0 -3 1 -3 0 -3 0 -4 1 -3 0 -3 1 -3 0 -3 1 -3 0 -3 1 -3 174 30 0 2 -1 3 0 2 0 3 -1 3 0 2 -1 3 0 3 0 2 -1 3 0 3 -1 3 0 2 0 3 -1 3 0 3 -1 3 0 3 0 3 -1 3 0 4 0 3 -1 3 0 3 0 3 -1 4 0 3 0 3 -1 3 0 4 0 3 -1 4 -108 78zm108 -78c-4,49 -47,85 -96,80 -48,-4 -84,-47 -80,-96l176 16zm-166 74l6 -178 0 0 4 0 4 0 4 0 4 0 3 1 4 0 3 0 4 0 3 0 3 1 4 0 3 0 3 0 3 1 3 0 2 0 3 0 3 1 3 0 2 0 3 1 2 0 2 0 3 1 2 0 2 0 2 1 3 0 2 1 2 0 2 0 3 1 -41 173 0 0 0 1 0 -1 0 0 -1 0 0 0 -1 0 -1 0 -1 0 -1 0 -2 -1 -1 0 -1 0 -2 0 -2 0 -2 0 -2 -1 -2 0 -2 0 -2 0 -3 0 -2 -1 -3 0 -2 0 -3 0 -3 0 -3 0 -3 -1 -3 0 -3 0 -4 0 -3 0 0 0zm9 -81l-177 -5 79 -86 4 0 3 -1 3 0 4 0 3 -1 3 0 4 0 3 -1 3 0 3 0 3 -1 3 0 3 0 3 0 3 -1 3 0 3 0 2 0 3 0 3 -1 3 0 3 0 2 0 3 0 3 0 3 0 2 0 3 0 3 0 2 0 3 0 3 0 -6 178 -1 0 0 0 -2 0 -1 0 -1 0 -1 0 -2 0 -1 0 -2 0 -2 0 -1 0 -2 0 -2 0 -3 1 -2 0 -2 0 -2 0 -3 0 -2 0 -3 1 -2 0 -3 0 -3 0 -3 1 -3 0 -3 0 -3 1 -3 0 -3 0 -3 1 -3 0 -4 0 80 -86zm-80 86c-48,5 -92,-30 -97,-79 -5,-49 31,-93 79,-98l18 177zm-32 1l36 175 -106 -90 0 -6 0 -5 0 -6 0 -5 0 -6 1 -5 0 -6 0 -6 0 -5 0 -6 0 -5 1 -6 0 -5 0 -6 0 -5 0 -6 0 -5 1 -6 0 -5 0 -6 0 -5 0 -6 0 -5 1 -6 0 -5 0 -6 0 -5 0 -6 0 -6 1 -5 0 -6 0 -5 177 5 -1 6 0 5 0 6 0 5 0 6 0 5 -1 6 0 5 0 6 0 5 0 6 0 6 0 5 -1 6 0 5 0 6 0 5 0 6 0 5 -1 6 0 5 0 6 0 5 0 6 0 5 -1 6 0 5 0 6 0 5 0 6 0 6 -1 5 -106 -90zm106 90c-1,49 -42,88 -91,86 -48,-1 -87,-42 -85,-91l176 5zm33 -124l44 172 0 0 -6 2 -6 1 -7 2 -6 2 -6 1 -6 2 -5 1 -6 2 -6 1 -5 1 -5 2 -5 1 -5 1 -5 2 -5 1 -5 1 -4 1 -4 1 -5 1 -4 1 -4 1 -4 1 -4 1 -3 1 -4 1 -3 1 -4 0 -3 1 -3 1 -3 0 -3 1 -3 1 -36 -175 2 0 2 -1 3 0 3 -1 2 -1 3 0 3 -1 3 -1 4 0 3 -1 4 -1 4 -1 4 -1 3 -1 5 -1 4 -1 4 -1 5 -1 5 -2 4 -1 5 -1 6 -1 5 -2 5 -1 6 -1 5 -2 6 -1 6 -2 6 -1 6 -2 6 -2 7 -1 0 0zm174 76l-173 -36 125 99 -3 1 -3 1 -3 2 -3 1 -3 2 -3 1 -2 1 -3 1 -3 2 -2 1 -3 1 -3 1 -2 1 -3 1 -2 1 -3 1 -2 1 -2 1 -3 1 -2 1 -2 1 -3 1 -2 1 -2 1 -3 1 -2 0 -3 1 -2 1 -2 1 -3 1 -2 0 -3 1 -44 -172 0 0 0 -1 0 0 1 0 0 0 1 0 0 0 2 -1 1 0 1 -1 1 0 1 -1 1 0 2 -1 1 0 2 -1 2 -1 1 0 2 -1 2 -1 2 -1 2 -1 2 -1 2 -1 3 -1 2 -1 2 -1 3 -1 2 -1 3 -1 2 -2 3 -1 125 98zm-125 -98c44,-21 97,-3 118,42 21,44 3,97 -41,119l-77 -161zm106 204l-174 -30 0 0 1 -5 1 -6 0 -5 1 -5 1 -5 1 -4 1 -5 0 -4 1 -5 1 -4 1 -4 0 -4 1 -4 1 -4 0 -3 1 -4 1 -3 0 -4 1 -3 0 -3 1 -3 0 -3 1 -2 0 -3 1 -2 0 -3 1 -2 0 -2 0 -2 1 -2 0 -2 1 -2 173 36 0 1 -1 2 0 1 0 2 -1 2 0 2 0 2 -1 2 0 2 -1 3 0 2 -1 3 0 3 -1 3 0 3 -1 3 0 4 -1 3 -1 4 0 4 -1 4 -1 4 -1 4 0 4 -1 5 -1 4 -1 5 0 5 -1 5 -1 5 -1 5 -1 5 0 0zm-81 185l-49 -171 -63 72 1 -4 1 -5 0 -4 1 -4 1 -4 0 -4 1 -4 0 -4 1 -4 1 -4 0 -4 1 -4 0 -4 1 -4 1 -3 0 -4 1 -3 0 -4 1 -4 0 -3 1 -3 1 -4 0 -3 1 -3 0 -4 1 -3 0 -3 1 -3 0 -3 1 -3 0 -3 1 -3 174 30 0 3 -1 3 0 3 -1 3 0 2 -1 3 0 3 -1 4 0 3 -1 3 0 3 -1 3 0 4 -1 3 -1 3 0 4 -1 4 0 3 -1 4 0 4 -1 3 -1 4 0 4 -1 4 0 4 -1 4 -1 4 0 4 -1 4 0 4 -1 5 -1 4 -63 72zm63 -72c-7,49 -52,82 -101,74 -48,-7 -81,-52 -74,-101l175 27zm-639 127l177 -4 -114 -83 14 -4 15 -5 14 -4 15 -5 14 -4 15 -4 14 -5 15 -4 14 -4 15 -5 14 -4 15 -5 14 -4 15 -4 14 -5 15 -4 14 -4 15 -5 14 -4 15 -5 14 -4 15 -4 14 -5 15 -4 14 -4 15 -4 14 -5 15 -4 15 -4 14 -5 15 -4 14 -4 49 171 -14 4 -14 4 -15 5 -14 4 -15 4 -14 4 -15 5 -14 4 -14 4 -15 5 -14 4 -15 4 -14 5 -15 4 -14 4 -15 5 -14 4 -15 4 -14 5 -15 4 -14 4 -15 5 -14 4 -14 5 -15 4 -14 4 -15 5 -14 4 -15 4 -14 5 -15 4 -14 5 -114 -84zm114 84c-47,14 -96,-13 -110,-60 -15,-47 12,-97 59,-111l51 171zm-122 -443l177 -3 0 0 0 11 0 11 0 11 1 11 0 12 0 11 0 11 0 11 1 11 0 12 0 11 0 11 1 11 0 11 0 12 0 11 1 11 0 11 0 11 1 12 0 11 0 11 0 11 1 12 0 11 0 11 0 11 1 11 0 12 0 11 0 11 1 11 -177 4 0 -11 -1 -11 0 -11 0 -11 0 -12 -1 -11 0 -11 0 -11 0 -11 -1 -12 0 -11 0 -11 -1 -11 0 -12 0 -11 0 -11 -1 -11 0 -11 0 -12 0 -11 -1 -11 0 -11 0 -12 0 -11 -1 -11 0 -11 0 -12 0 -11 0 -11 -1 -12 0 -11 0 -11 0 0zm-7 -362l177 -3 0 0 0 11 0 12 0 11 0 11 1 12 0 11 0 11 0 11 1 12 0 11 0 11 0 12 0 11 1 11 0 12 0 11 0 11 1 11 0 12 0 11 0 11 1 12 0 11 0 11 0 12 0 11 1 11 0 11 0 12 0 11 1 11 0 12 -177 3 0 -11 -1 -12 0 -11 0 -11 0 -11 0 -12 -1 -11 0 -11 0 -11 0 -12 -1 -11 0 -11 0 -12 0 -11 0 -11 -1 -11 0 -12 0 -11 0 -11 -1 -12 0 -11 0 -11 0 -12 0 -11 -1 -11 0 -12 0 -11 0 -11 -1 -12 0 -11 0 -11 0 -12 0 0zm-8 -299l177 -4 0 0 0 11 1 10 0 11 0 11 1 10 0 10 0 11 0 10 1 10 0 10 0 10 1 10 0 9 0 10 0 10 1 9 0 9 0 10 0 9 0 9 1 9 0 9 0 8 0 9 1 9 0 8 0 9 0 8 0 8 0 8 1 8 0 8 -177 3 0 -8 0 -7 -1 -8 0 -8 0 -9 0 -8 0 -8 0 -9 -1 -8 0 -9 0 -9 0 -9 -1 -9 0 -9 0 -9 0 -9 -1 -10 0 -9 0 -10 0 -9 -1 -10 0 -10 0 -10 0 -10 -1 -10 0 -11 0 -10 0 -11 -1 -10 0 -11 0 -11 -1 -11 0 0zm107 -489l-62 167 119 -86 1 14 0 14 1 14 0 14 1 14 0 13 1 14 0 13 1 14 0 13 0 13 1 13 0 13 1 13 0 13 1 13 0 12 0 13 1 12 0 12 1 13 0 12 0 12 1 11 0 12 0 12 1 11 0 12 0 11 1 11 0 12 0 11 -177 4 0 -11 0 -11 -1 -11 0 -11 0 -11 -1 -12 0 -12 0 -11 -1 -12 0 -12 0 -12 -1 -12 0 -12 0 -13 -1 -12 0 -13 -1 -12 0 -13 0 -13 -1 -13 0 -13 -1 -13 0 -13 -1 -14 0 -13 -1 -14 0 -13 0 -14 -1 -14 0 -14 -1 -14 0 -14 119 -87zm-119 87c-2,-49 36,-91 85,-92 49,-2 90,36 91,86l-176 6zm721 201l-177 -10 59 89 -17 -6 -17 -6 -17 -7 -17 -6 -17 -6 -17 -6 -17 -6 -18 -6 -17 -6 -17 -7 -17 -6 -17 -6 -17 -6 -17 -6 -17 -7 -17 -6 -17 -6 -17 -6 -17 -7 -17 -6 -17 -6 -17 -7 -17 -6 -17 -6 -17 -7 -17 -6 -18 -6 -17 -6 -17 -7 -17 -6 -17 -6 -17 -7 62 -167 17 6 17 7 17 6 17 6 17 7 17 6 17 6 17 7 16 6 18 6 16 6 17 7 17 6 17 6 17 6 17 7 17 6 17 6 17 6 17 6 17 7 17 6 17 6 17 6 17 6 17 6 17 6 17 6 17 6 17 6 17 7 17 6 59 89zm-59 -89c46,16 70,67 54,113 -16,47 -67,71 -113,55l59 -168zm777 841l-165 -65 0 0 1 -3 2 -4 1 -3 1 -4 1 -4 2 -4 1 -3 1 -4 1 -4 1 -4 1 -4 1 -4 1 -4 0 -4 1 -5 1 -4 1 -4 0 -4 1 -5 1 -4 0 -5 1 -4 0 -5 0 -4 1 -5 0 -5 0 -4 1 -5 0 -5 0 -5 0 -5 0 -5 177 0 0 7 0 7 0 6 -1 7 0 7 0 6 -1 7 0 6 -1 7 0 6 -1 7 -1 6 -1 7 -1 6 -1 6 -1 7 -1 6 -1 6 -1 6 -2 7 -1 6 -2 6 -1 6 -2 6 -1 6 -2 6 -2 6 -2 6 -2 6 -2 6 -2 6 -2 5 0 0zm-107 162l-125 -126 0 0 3 -3 2 -3 3 -3 3 -3 3 -3 2 -3 3 -3 2 -3 3 -3 2 -3 2 -3 3 -3 2 -3 2 -3 2 -3 3 -3 2 -3 2 -4 2 -3 2 -3 1 -3 2 -3 2 -3 2 -4 1 -3 2 -3 2 -4 1 -3 2 -3 1 -4 2 -3 1 -4 165 65 -3 6 -2 6 -3 6 -2 5 -3 6 -2 6 -3 5 -3 6 -3 5 -3 5 -3 6 -3 5 -3 5 -3 6 -4 5 -3 5 -3 5 -4 5 -4 5 -3 4 -4 5 -3 5 -4 5 -4 4 -4 5 -4 5 -4 4 -4 5 -4 4 -4 4 -4 5 -4 4 0 0zm-384 185l-33 -175 0 0 12 -2 12 -3 12 -3 12 -2 12 -3 11 -4 11 -3 11 -3 10 -3 11 -4 10 -4 10 -3 10 -4 9 -4 10 -4 9 -5 9 -4 8 -4 9 -5 8 -5 8 -4 8 -5 8 -5 8 -5 7 -5 7 -6 7 -5 7 -6 7 -6 6 -5 7 -6 6 -6 125 126 -10 9 -9 9 -9 8 -10 8 -10 9 -10 8 -11 7 -10 8 -11 7 -11 7 -11 7 -11 6 -12 7 -11 6 -12 6 -12 6 -12 5 -13 6 -12 5 -13 5 -12 5 -13 4 -13 5 -14 4 -13 4 -14 4 -13 4 -14 4 -15 3 -14 3 -14 3 -15 3 0 0zm-321 -50l177 -6 -91 -86 4 -1 4 0 4 0 4 0 4 -1 5 0 4 -1 5 0 5 -1 6 0 5 -1 6 -1 6 -1 6 -1 6 -1 6 -1 6 -1 7 -1 7 -1 7 -2 7 -1 7 -1 8 -2 7 -1 8 -2 8 -1 8 -2 8 -1 8 -2 8 -1 9 -2 9 -2 33 175 -8 2 -9 2 -8 1 -9 2 -8 1 -8 2 -8 2 -8 1 -8 2 -8 1 -7 1 -8 2 -7 1 -7 1 -8 2 -7 1 -7 1 -7 1 -7 1 -7 1 -6 1 -7 1 -7 1 -6 1 -7 1 -6 0 -6 1 -7 0 -6 1 -6 0 -7 1 -6 0 -90 -86zm90 86c-49,1 -89,-38 -90,-87 -1,-50 38,-90 86,-91l4 178zm-97 -334l177 -5 0 0 0 8 0 8 0 7 1 8 0 8 0 8 0 7 0 8 1 8 0 8 0 7 0 8 0 8 1 7 0 8 0 8 0 7 0 8 1 8 0 8 0 7 0 8 1 8 0 7 0 8 0 8 1 7 0 8 0 8 0 7 0 8 1 8 -177 6 0 -8 -1 -8 0 -8 0 -7 0 -8 0 -8 -1 -8 0 -7 0 -8 0 -8 -1 -7 0 -8 0 -8 0 -8 -1 -7 0 -8 0 -8 0 -8 0 -7 -1 -8 0 -8 0 -8 0 -7 0 -8 -1 -8 0 -8 0 -7 0 -8 0 -8 -1 -7 0 -8 0 -8 0 0zm-7 -248l177 -6 0 0 0 8 1 8 0 8 0 8 0 8 0 7 1 8 0 8 0 8 0 7 0 8 1 8 0 8 0 8 0 7 1 8 0 8 0 8 0 8 0 7 0 8 1 8 0 8 0 7 0 8 0 8 1 8 0 7 0 8 0 8 0 8 1 7 -177 5 0 -8 -1 -8 0 -7 0 -8 0 -8 0 -8 -1 -7 0 -8 0 -8 0 -8 0 -7 0 -8 -1 -8 0 -8 0 -7 0 -8 0 -8 -1 -8 0 -7 0 -8 0 -8 -1 -8 0 -7 0 -8 0 -8 0 -8 -1 -8 0 -7 0 -8 0 -8 0 -8 -1 -7 0 0zm-9 -229l176 -8 0 0 1 9 0 8 0 8 1 8 0 8 1 8 0 8 0 8 1 7 0 8 0 8 1 7 0 8 0 7 1 7 0 8 0 7 1 7 0 7 0 7 0 7 1 7 0 6 0 7 1 7 0 6 0 7 0 6 0 7 1 6 0 6 0 6 -177 6 0 -6 0 -6 0 -6 0 -6 -1 -7 0 -6 0 -6 0 -7 -1 -6 0 -7 0 -7 -1 -7 0 -6 0 -7 0 -7 -1 -7 0 -8 0 -7 -1 -7 0 -8 0 -7 -1 -8 0 -7 0 -8 -1 -8 0 -8 -1 -8 0 -8 0 -8 -1 -8 0 -8 0 -9 0 0zm85 -400l-23 177 100 -93 0 11 1 11 0 10 1 11 0 10 1 11 0 10 1 10 0 11 1 10 0 10 1 10 0 10 1 9 0 10 1 10 0 10 1 9 0 9 1 10 0 9 0 9 1 9 0 10 1 9 0 8 0 9 1 9 0 9 1 8 0 9 0 8 -176 8 -1 -8 0 -9 0 -8 -1 -9 0 -9 -1 -8 0 -9 0 -9 -1 -9 0 -9 -1 -10 0 -9 -1 -9 0 -10 0 -9 -1 -10 0 -9 -1 -10 0 -10 -1 -10 0 -10 -1 -10 0 -10 -1 -10 0 -10 -1 -10 0 -11 -1 -10 0 -11 -1 -11 0 -10 -1 -11 100 -93zm-100 93c-2,-49 35,-91 84,-93 49,-3 90,35 93,84l-177 9zm344 -42l-42 173 0 0 -7 -2 -8 -1 -7 -2 -8 -2 -8 -2 -7 -2 -7 -2 -8 -1 -7 -2 -8 -2 -7 -1 -7 -2 -7 -2 -7 -1 -8 -2 -7 -2 -7 -1 -7 -2 -7 -1 -6 -1 -7 -2 -7 -1 -7 -2 -7 -1 -6 -1 -7 -1 -7 -1 -6 -1 -7 -1 -6 -1 -7 -1 -6 -1 23 -177 8 1 7 1 8 1 8 2 7 1 8 1 7 2 8 1 8 1 7 2 8 1 8 2 7 1 8 2 7 2 8 1 8 2 7 2 8 1 7 2 8 2 8 2 7 1 8 2 7 2 8 2 8 2 7 2 8 1 7 2 8 2 8 2 0 0zm381 187l-120 131 0 0 -7 -6 -6 -6 -7 -5 -7 -6 -8 -6 -7 -5 -8 -6 -7 -5 -8 -5 -8 -5 -9 -5 -8 -5 -9 -5 -9 -5 -9 -4 -9 -5 -10 -4 -9 -5 -10 -4 -10 -4 -11 -4 -10 -4 -11 -4 -11 -4 -11 -4 -11 -4 -12 -3 -11 -4 -12 -3 -13 -3 -12 -4 -13 -3 42 -173 14 4 14 3 15 4 13 4 14 4 14 4 13 5 14 4 13 5 13 5 12 4 13 6 13 5 12 5 12 6 12 5 12 6 12 6 11 6 12 7 11 6 11 7 11 7 10 7 11 7 10 7 11 8 10 7 9 8 10 8 9 9 10 8 0 0zm120 171l-164 66 0 0 -1 -3 -2 -4 -1 -3 -2 -4 -2 -4 -2 -3 -1 -4 -2 -3 -2 -3 -2 -4 -2 -3 -2 -4 -3 -3 -2 -3 -2 -4 -2 -3 -3 -3 -2 -4 -3 -3 -3 -3 -2 -3 -3 -3 -3 -4 -2 -3 -3 -3 -3 -3 -3 -3 -3 -3 -4 -4 -3 -3 -3 -3 -3 -3 120 -131 4 4 5 5 5 4 4 5 4 4 5 5 4 5 5 5 4 4 4 5 4 5 4 5 5 5 4 5 3 6 4 5 4 5 4 6 4 5 3 6 4 5 3 6 4 6 3 6 3 6 3 6 3 6 3 6 3 6 3 6 3 6 2 7 0 0zm40 218l-177 0 0 0 0 -5 0 -6 0 -5 0 -6 -1 -5 0 -6 0 -5 -1 -5 0 -5 -1 -5 0 -5 -1 -5 -1 -5 0 -5 -1 -5 -1 -4 -1 -5 -1 -5 -1 -4 -1 -5 -1 -4 -1 -5 -1 -4 -1 -5 -2 -4 -1 -4 -1 -4 -2 -4 -1 -5 -2 -4 -1 -4 -2 -4 164 -66 3 6 2 6 2 6 3 7 2 6 2 6 2 7 2 6 1 7 2 6 2 7 1 7 2 6 1 7 2 7 1 7 1 7 1 6 1 7 1 7 1 7 1 7 1 7 0 8 1 7 0 7 1 7 0 8 0 7 1 7 0 8 0 7 0 0zm-405 17l110 -140 0 0 5 4 5 5 5 4 5 5 4 5 5 5 4 5 4 6 4 5 4 5 3 6 4 6 3 6 3 6 3 6 2 6 3 6 2 6 2 7 2 6 2 6 1 7 2 6 1 7 1 6 1 7 1 6 0 7 1 7 0 6 0 7 0 6 -177 0 0 -3 0 -3 0 -3 0 -2 0 -3 -1 -3 0 -2 0 -2 -1 -2 0 -2 -1 -2 0 -2 -1 -2 0 -1 -1 -1 0 -2 -1 -1 0 -1 -1 -1 0 -1 -1 -1 0 -1 -1 -1 0 -1 -1 0 -1 -1 0 -1 -1 0 -1 -1 0 -1 -1 -1 -1 0 0 0zm39 -102l-177 -4 88 -87 6 0 5 0 5 0 6 1 5 0 6 1 5 0 5 1 6 1 5 1 5 1 6 1 5 1 5 2 5 1 5 2 5 2 5 1 5 2 5 2 5 3 5 2 5 2 5 3 4 2 5 3 4 3 5 3 4 3 4 3 5 3 4 3 -110 140 -1 -1 -1 -1 -1 -1 -2 -1 -1 0 -1 -1 -1 -1 -1 0 -1 -1 -1 -1 -2 0 -1 -1 -1 0 -2 -1 -1 0 -1 -1 -2 0 -1 -1 -2 0 -2 0 -1 -1 -2 0 -2 0 -2 -1 -2 0 -2 0 -2 0 -2 -1 -2 0 -2 0 -3 0 -2 0 89 -87zm-89 87c-49,0 -88,-40 -88,-89 0,-49 39,-89 88,-89l0 178zm85 91l-177 -2 0 0 0 -6 0 -6 0 -5 0 -6 0 -6 0 -5 0 -6 1 -6 0 -5 0 -6 0 -6 0 -5 0 -6 0 -5 0 -6 1 -6 0 -5 0 -6 0 -5 0 -6 0 -6 0 -5 1 -6 0 -5 0 -6 0 -6 0 -5 0 -6 0 -5 0 -6 1 -5 0 -6 177 4 -1 6 0 5 0 6 0 5 0 6 0 6 0 5 -1 6 0 6 0 5 0 6 0 5 0 6 0 6 0 5 -1 6 0 5 0 6 0 5 0 6 0 5 0 6 -1 5 0 6 0 6 0 5 0 6 0 5 0 6 0 5 0 6 0 5 0 0zm-107 91l29 175 -103 -89 0 -5 0 -6 0 -6 1 -6 0 -5 0 -6 0 -6 0 -5 0 -6 0 -5 0 -6 0 -6 1 -5 0 -6 0 -6 0 -5 0 -6 0 -5 0 -6 0 -6 1 -5 0 -6 0 -5 0 -6 0 -5 0 -6 0 -6 0 -5 0 -6 1 -5 0 -6 0 -5 177 2 -1 6 0 6 0 5 0 6 0 6 0 5 0 6 0 6 0 5 0 6 -1 6 0 5 0 6 0 6 0 5 0 6 0 5 0 6 -1 6 0 5 0 6 0 5 0 6 0 5 0 6 0 6 0 5 -1 6 0 5 0 6 0 5 0 6 -103 -89zm103 89c-1,49 -41,88 -90,88 -48,-1 -87,-42 -87,-91l177 3zm-43 -119l126 124 0 0 -4 4 -4 4 -4 4 -4 3 -4 4 -4 4 -4 3 -5 3 -4 4 -5 3 -5 3 -4 3 -5 3 -5 3 -5 3 -5 2 -5 3 -5 2 -5 2 -5 3 -6 2 -5 2 -5 2 -5 2 -6 1 -5 2 -6 2 -6 1 -5 1 -6 1 -5 2 -6 0 -29 -175 3 -1 2 0 3 -1 2 0 2 -1 3 -1 2 0 2 -1 2 -1 2 0 2 -1 2 -1 2 -1 2 -1 2 0 1 -1 2 -1 2 -1 1 -1 2 -1 2 -1 1 -1 2 -1 2 -2 1 -1 2 -1 1 -1 2 -2 1 -1 2 -1 1 -2 2 -1 0 0zm27 -89l177 0 0 0 0 8 0 8 0 7 -1 8 -1 7 0 8 -1 7 -1 7 -1 8 -2 7 -1 7 -2 7 -2 7 -2 7 -2 7 -2 7 -3 6 -3 7 -2 7 -3 6 -4 7 -3 6 -3 6 -4 6 -4 6 -4 6 -4 6 -4 6 -5 5 -4 6 -5 5 -5 5 -126 -124 1 -2 2 -2 1 -1 2 -2 1 -2 1 -2 1 -2 2 -2 1 -1 1 -3 1 -2 1 -2 1 -2 1 -2 1 -3 1 -2 1 -3 1 -3 1 -3 0 -2 1 -4 1 -3 0 -3 1 -3 1 -4 0 -4 0 -3 1 -4 0 -5 0 -4 0 -4 0 -5 0 0z"/>
   </g>
   <path id="1" class="fil9" d="M2810 2691c-15,74 -35,170 -58,287 -23,114 -52,247 -84,396 -14,68 -30,147 -49,237 -18,89 -39,187 -62,294 -62,-17 -124,-34 -186,-50 -9,-48 -21,-112 -37,-192 -15,-79 -35,-172 -57,-278 -14,54 -31,117 -50,188 -19,71 -40,149 -64,235 -61,-11 -123,-21 -184,-29 -11,-43 -26,-99 -45,-168 -18,-68 -41,-148 -68,-240 -15,-51 -36,-110 -58,-179 -23,-68 -51,-146 -81,-232 117,-6 235,-19 353,-39 7,35 20,94 38,175 9,38 18,76 27,113 9,39 19,77 28,116 10,-33 25,-92 44,-176 -8,-35 -17,-72 -27,-113 -10,-41 -22,-84 -35,-131 107,-27 215,-59 322,-94 5,43 15,113 27,211 5,33 11,73 17,121 6,47 13,102 21,165 9,-50 18,-100 27,-151 9,-52 18,-104 27,-157 10,-60 21,-141 34,-242 60,-22 120,-45 180,-67zm660 1469c-95,-20 -189,-43 -284,-68 -8,-45 -15,-90 -22,-134 -8,4 -28,18 -58,44 -20,18 -42,44 -66,75 -10,-40 -19,-81 -29,-121 -6,-24 -15,-57 -26,-99 -9,57 -18,113 -27,169 -51,-15 -101,-31 -151,-46 11,-66 25,-155 42,-268 17,-114 38,-254 60,-421 16,-113 28,-225 39,-336 12,-111 23,-221 32,-327 104,-38 208,-74 312,-107 4,53 13,142 26,266 14,126 31,289 53,492 12,106 26,233 43,378 16,147 35,315 56,503zm-327 -402c-6,-36 -16,-93 -31,-172 -9,-44 -22,-103 -41,-178 -8,37 -21,97 -37,179 -10,46 -21,110 -34,189 11,1 34,3 71,1 22,-2 46,-9 72,-19zm983 -1335c-2,78 -5,185 -9,321 -3,135 -7,300 -11,494 -3,143 -5,297 -7,462 -2,165 -4,340 -6,527 -45,-77 -112,-196 -207,-354 -38,-65 -100,-160 -179,-288 -1,102 -2,204 -3,306 0,102 -2,204 -2,306 -56,-7 -111,-16 -167,-25 -1,-75 -4,-185 -7,-328 -3,-142 -7,-318 -12,-527 -4,-169 -9,-324 -13,-466 -5,-142 -9,-270 -13,-384 86,-19 172,-35 259,-46 64,130 129,265 194,402 0,-95 -1,-169 -3,-223 -1,-48 -3,-112 -6,-191 64,3 128,6 192,14zm675 178c-2,98 -5,197 -7,296 -3,99 -5,198 -7,298 -14,-5 -36,-13 -66,-21 -18,-4 -48,-8 -89,-14 -3,40 -6,136 -11,290 -2,74 -5,166 -7,276 -3,110 -7,238 -11,384 -84,21 -167,40 -250,57 -2,-74 -4,-170 -7,-287 -2,-117 -4,-256 -8,-417 -3,-112 -7,-220 -11,-327 -28,1 -55,2 -82,2 -25,5 -50,9 -75,14 -2,-121 -5,-242 -7,-362 -1,-121 -4,-242 -6,-363 214,41 429,101 644,174zm576 210c-4,72 -8,145 -12,218 -3,74 -7,148 -11,222 -13,-4 -40,-12 -83,-23 -29,-7 -60,-12 -95,-17 -3,49 -5,99 -8,149 38,2 100,2 186,0 -3,18 -10,50 -18,99 -5,29 -9,63 -13,102 -10,-3 -35,-6 -75,-7 -18,-1 -46,2 -83,6 -1,58 -3,117 -5,176 26,-5 74,-17 143,-35 13,-4 35,-13 65,-28 -3,15 -9,51 -19,109 -5,30 -11,68 -18,114 -155,46 -309,93 -464,139 -2,-119 -6,-239 -8,-359 -2,-120 -5,-241 -7,-361 -1,-83 -4,-183 -7,-300 -3,-117 -8,-251 -13,-403 181,67 363,134 545,199zm752 556c0,63 -9,119 -29,169 -19,50 -49,93 -87,131 -81,81 -193,133 -337,161 -94,18 -166,33 -217,34 -2,-82 -5,-165 -7,-247 -2,-83 -4,-166 -6,-249 -2,-64 -6,-141 -10,-230 -4,-89 -9,-192 -15,-307 75,9 153,29 235,49 145,35 258,88 342,166 42,39 77,84 98,138 22,54 33,115 33,185zm-212 65c0,-53 -17,-92 -49,-118 -28,-22 -63,-34 -105,-34 -1,60 -3,119 -4,179 -1,60 -2,120 -3,180 44,-8 80,-27 108,-56 35,-36 53,-85 53,-151z"/>
  </g>
 </g>
</svg>
